#N canvas 0 0 764 581 10;
#X obj 38 67 osc~ 440;
#X obj 122 63 osc~ 880;
#X obj 209 64 osc~ 1200;
#X obj 321 421 dac~;
#X obj 36 106 adc_mix8~;
#X connect 0 0 4 0;
#X connect 1 0 4 1;
#X connect 2 0 4 2;
#X connect 4 0 3 0;
#X connect 4 1 3 1;
