#N canvas -9 -9 1366 682 10;
#X floatatom 143 -32 5 -60 6 0 - - -;
#X obj 161 -12 tgl 15 0 empty empty empty 17 7 0 10 -262144 -1 -1 0
1;
#X obj 179 -12 tgl 15 0 empty empty empty 17 7 0 10 -262144 -1 -1 0
1;
#X obj 198 276 tgl 15 0 empty empty empty 17 7 0 10 -262144 -1 -1 0
1;
#X obj 216 276 tgl 15 0 empty empty empty 17 7 0 10 -262144 -1 -1 0
1;
#X obj -15 -79 osc~ 220;
#X obj 45 -21 *~;
#X obj 51 -59 hsl 128 15 0 2 0 0 empty empty empty -2 -8 0 10 -262144
-1 -1 10700 1;
#X floatatom 49 -78 5 0 0 0 - - -;
#X obj 103 301 adc_scope~;
#X obj 126 29 adc_mix1~;
#X floatatom 146 277 5 0 0 0 - - -;
#X connect 0 0 10 1;
#X connect 1 0 10 2;
#X connect 2 0 10 3;
#X connect 5 0 6 0;
#X connect 6 0 10 0;
#X connect 7 0 6 1;
#X connect 7 0 8 0;
#X connect 10 0 9 0;
#X connect 10 1 11 0;
#X connect 10 2 3 0;
#X connect 10 3 4 0;
