#N canvas -14 147 764 581 10;
#X obj 321 421 dac~;
#X obj 36 106 adc_mix8~;
#X obj 38 67 osc~ 110;
#X obj 122 63 osc~ 235;
#X obj 209 64 osc~ 455;
#X obj 295 66 osc~ 637;
#X obj 377 70 osc~ 799;
#X obj 467 55 osc~ 979;
#X obj 547 59 osc~ 2104;
#X obj 652 45 osc~ 3125;
#X connect 1 0 0 0;
#X connect 1 1 0 1;
#X connect 2 0 1 0;
#X connect 3 0 1 1;
#X connect 4 0 1 2;
#X connect 5 0 1 3;
#X connect 6 0 1 4;
#X connect 7 0 1 5;
#X connect 8 0 1 6;
#X connect 9 0 1 7;
