#N canvas 485 321 617 545 10;
#X obj 106 58 adsr~;
#X obj 107 35 tgl 15 0 empty empty empty 17 7 0 10 -262144 -1 -1 0
1;
#X obj 92 337 dac~;
#X obj 98 285 *~ 0.2;
#X obj 34 199 osc~ 440;
#X obj 96 236 *~;
#X connect 0 0 5 1;
#X connect 1 0 0 0;
#X connect 3 0 2 0;
#X connect 3 0 2 1;
#X connect 4 0 5 0;
#X connect 5 0 3 0;
