#N canvas 0 0 450 300 10;
#X obj 147 121 rissetbell~;
#X obj 134 79 bng 15 250 50 0 empty empty empty 17 7 0 10 -262144 -1
-1;
#X msg 170 75 400;
#X msg 211 75 60000;
#X obj 217 28 tgl 15 0 empty empty empty 17 7 0 10 -262144 -1 -1 1
1;
#X obj 144 200 dac~;
#X obj 250 125 tgl 15 0 empty empty empty 17 7 0 10 -262144 -1 -1 1
1;
#X obj 252 145 metro 50;
#X obj 252 181 snapshot~;
#X floatatom 252 211 5 0 0 0 - - -;
#X connect 0 0 5 0;
#X connect 0 0 5 1;
#X connect 0 0 8 0;
#X connect 1 0 0 0;
#X connect 2 0 0 1;
#X connect 3 0 0 2;
#X connect 4 0 2 0;
#X connect 4 0 3 0;
#X connect 6 0 7 0;
#X connect 7 0 8 0;
#X connect 8 0 9 0;
