#N canvas 30 54 736 545 10;
#X obj 100 273 adc_mix1~;
#X obj 117 532 dac~;
#X obj 43 66 adc_multiosc~;
#X msg 281 18 30;
#X msg 325 14 60;
#X msg 361 21 80;
#X connect 0 0 1 0;
#X connect 0 1 1 1;
#X connect 2 0 0 0;
#X connect 2 1 0 0;
#X connect 2 2 0 0;
#X connect 2 3 0 0;
#X connect 2 4 0 0;
#X connect 3 0 2 4;
#X connect 4 0 2 4;
#X connect 5 0 2 4;
