#N canvas 642 0 706 493 10;
#X obj 326 49 inlet~;
#X obj 278 377 outlet~;
#X obj 577 46 inlet;
#X text 306 24 Signal input;
#X text 576 23 Mute;
#X obj 628 45 r mix1_mute;
#X obj 371 279 *~;
#X obj 379 240 *~;
#X obj 427 50 inlet;
#X obj 477 49 r mix1_level;
#X obj 426 125 dbtorms;
#X floatatom 459 75 5 0 0 0 - - -;
#X floatatom 484 142 5 0 0 0 - - -;
#X floatatom 592 79 5 0 0 0 - - -;
#X text 453 20 Level;
#X obj 579 137 not;
#X floatatom 583 160 5 0 0 0 - - -;
#X obj 106 64 tgl 15 0 empty empty empty 17 7 0 10 -262144 -1 -1 1
1;
#X text 101 46 Mute;
#X obj 106 87 vsl 15 128 -50 6 0 0 empty empty empty 0 -9 0 10 -262144
-1 -1 10079 1;
#X obj 177 79 s mix1_mute;
#X obj 188 124 s mix1_level;
#X obj 19 102 loadbang;
#X floatatom 125 104 5 0 0 0 - - -;
#X text 123 117 (dB);
#X obj 419 99 + 100;
#X floatatom 194 190 5 0 0 0 - - -;
#X obj 247 170 > 0;
#X obj 127 85 bng 15 250 50 0 empty empty empty 17 7 0 10 -258113 -1
-1;
#X obj 264 194 tgl 15 0 empty empty empty 17 7 0 10 -262144 -1 -1 0
1;
#X obj 269 219 metro 150;
#X obj 418 152 pack 0 50;
#X obj 417 183 line~;
#X obj 473 369 outlet~;
#X obj 107 224 hsl 48 15 0 1 0 0 empty empty empty -2 -8 0 10 -262144
-1 -1 4300 1;
#X floatatom 130 202 4 0 0 0 - - -;
#X text 135 185 PAN;
#X obj 18 216 loadbang;
#X text 104 239 L;
#X obj 75 270 s mix1_pan;
#X text 295 396 L;
#X text 138 239 R;
#X obj 443 292 r mix1_pan;
#X obj 451 335 *~;
#X floatatom 489 317 5 0 0 0 - - -;
#X text 493 388 R;
#X obj 374 324 !-;
#X floatatom 378 351 5 0 0 0 - - -;
#X obj 291 350 *~;
#X msg 19 126 -6;
#X msg 18 237 0.5;
#X obj 35 21 loadbang;
#X msg 35 46 0;
#X connect 0 0 7 0;
#X connect 2 0 13 0;
#X connect 5 0 13 0;
#X connect 6 0 43 0;
#X connect 6 0 48 0;
#X connect 7 0 6 0;
#X connect 8 0 11 0;
#X connect 9 0 11 0;
#X connect 10 0 12 0;
#X connect 10 0 31 0;
#X connect 11 0 25 0;
#X connect 13 0 15 0;
#X connect 15 0 6 1;
#X connect 15 0 16 0;
#X connect 17 0 20 0;
#X connect 19 0 23 0;
#X connect 19 0 26 0;
#X connect 22 0 49 0;
#X connect 23 0 19 0;
#X connect 23 0 21 0;
#X connect 25 0 10 0;
#X connect 26 0 27 0;
#X connect 27 0 29 0;
#X connect 29 0 30 0;
#X connect 30 0 28 0;
#X connect 31 0 32 0;
#X connect 32 0 7 1;
#X connect 34 0 35 0;
#X connect 34 0 39 0;
#X connect 35 0 34 0;
#X connect 37 0 50 0;
#X connect 42 0 44 0;
#X connect 42 0 46 0;
#X connect 42 0 43 1;
#X connect 43 0 33 0;
#X connect 46 0 47 0;
#X connect 46 0 48 1;
#X connect 48 0 1 0;
#X connect 49 0 19 0;
#X connect 50 0 34 0;
#X connect 51 0 52 0;
#X connect 52 0 17 0;
#X coords 0 -1 1 1 60 230 1 100 30;
