#N canvas 171 104 1021 664 12;
#X text 200 359 2;
#X text 331 359 4;
#X text 395 359 5;
#X text 459 359 6;
#X text 523 358 7;
#X text 587 358 8;
#X obj 397 1097 outlet~;
#X obj 553 1097 outlet~;
#X floatatom 782 960 5 0 0 0 - - -;
#X floatatom 828 1027 5 0 0 0 - - -;
#X obj 515 1028 *~;
#X obj 610 996 adc_dbtorms;
#X obj 554 1065 *~;
#X obj 367 1027 *~;
#X obj 396 1065 *~;
#X obj 634 118 cnv 15 10 260 empty empty empty 20 12 0 14 -233017 -66577
0;
#X text 668 361 MASTER;
#X obj 108 62 inlet~;
#X obj 175 60 inlet~;
#X obj 241 63 inlet~;
#X obj 306 65 inlet~;
#X obj 370 64 inlet~;
#X obj 434 63 inlet~;
#X obj 498 62 inlet~;
#X obj 562 62 inlet~;
#X obj 108 130 adc_mix1~;
#X msg -32 486 1 0 0 0 0 0 0 0;
#X obj -93 756 unpack f f f f f f f f;
#X obj 108 912 *~;
#X obj 138 912 *~;
#X obj 177 912 *~;
#X obj 206 912 *~;
#X obj 240 911 *~;
#X obj 269 911 *~;
#X obj 306 911 *~;
#X obj 334 911 *~;
#X obj 368 911 *~;
#X obj 396 911 *~;
#X obj 430 910 *~;
#X obj 458 910 *~;
#X obj 494 910 *~;
#X obj 522 910 *~;
#X obj 553 909 *~;
#X obj 581 909 *~;
#X obj 256 402 sel 0 1;
#X obj 320 403 sel 0 1;
#X obj 384 403 sel 0 1;
#X obj 447 403 sel 0 1;
#X obj 511 404 sel 0 1;
#X obj 574 402 sel 0 1;
#X msg -101 453 1 1 1 1 1 1 1 1;
#X msg -32 554 0 0 1 0 0 0 0 0;
#X msg -32 587 0 0 0 1 0 0 0 0;
#X msg -31 619 0 0 0 0 1 0 0 0;
#X msg -31 649 0 0 0 0 0 1 0 0;
#X msg -31 677 0 0 0 0 0 0 1 0;
#X msg -36 709 0 0 0 0 0 0 0 1;
#X obj 40 22 unpack f f f f f f f f;
#X text 133 359 1;
#X obj -110 10 loadbang;
#X msg -107 55 0 0 0 0 0 0 0 0;
#X obj 657 132 adc_mix1~;
#X obj 175 131 adc_mix1~;
#X obj 241 131 adc_mix1~;
#X obj 306 131 adc_mix1~;
#X obj 370 131 adc_mix1~;
#X obj 434 131 adc_mix1~;
#X obj 498 131 adc_mix1~;
#X obj 562 131 adc_mix1~;
#X floatatom 154 361 5 0 0 0 - - -;
#X floatatom 222 375 5 0 0 0 - - -;
#X floatatom 295 371 5 0 0 0 - - -;
#X floatatom 355 373 5 0 0 0 - - -;
#X floatatom 414 377 5 0 0 0 - - -;
#X floatatom 480 371 5 0 0 0 - - -;
#X floatatom 547 380 5 0 0 0 - - -;
#X floatatom 614 381 5 0 0 0 - - -;
#X floatatom 21 -18 5 0 0 0 - - -;
#X floatatom 69 -19 5 0 0 0 - - -;
#X floatatom 115 -20 5 0 0 0 - - -;
#X floatatom 160 -21 5 0 0 0 - - -;
#X floatatom 205 -20 5 0 0 0 - - -;
#X floatatom 250 -22 5 0 0 0 - - -;
#X floatatom 296 -21 5 0 0 0 - - -;
#X floatatom 344 -20 5 0 0 0 - - -;
#X obj 188 400 sel 0 1;
#X obj 108 401 sel 0 1;
#X msg -31 522 0 1 0 0 0 0 0 0;
#X obj 435 33 tgl 15 0 empty empty empty 17 7 0 10 -262144 -1 -1 0
1;
#X floatatom -97 805 5 0 0 0 - - -;
#X floatatom -89 825 5 0 0 0 - - -;
#X floatatom -68 865 5 0 0 0 - - -;
#X floatatom -78 845 5 0 0 0 - - -;
#X floatatom -53 887 5 0 0 0 - - -;
#X floatatom -39 909 5 0 0 0 - - -;
#X floatatom -28 933 5 0 0 0 - - -;
#X floatatom -16 958 5 0 0 0 - - -;
#X obj 782 988 adc_not;
#X connect 8 0 97 0;
#X connect 10 0 12 0;
#X connect 11 0 13 1;
#X connect 11 0 10 1;
#X connect 12 0 7 0;
#X connect 13 0 14 0;
#X connect 14 0 6 0;
#X connect 17 0 25 0;
#X connect 18 0 62 0;
#X connect 19 0 63 0;
#X connect 20 0 64 0;
#X connect 21 0 65 0;
#X connect 22 0 66 0;
#X connect 23 0 67 0;
#X connect 24 0 68 0;
#X connect 25 0 28 0;
#X connect 25 3 69 0;
#X connect 25 3 86 0;
#X connect 25 4 29 0;
#X connect 26 0 27 0;
#X connect 26 0 57 0;
#X connect 27 0 28 1;
#X connect 27 0 29 1;
#X connect 27 0 89 0;
#X connect 27 1 30 1;
#X connect 27 1 31 1;
#X connect 27 1 90 0;
#X connect 27 2 32 1;
#X connect 27 2 33 1;
#X connect 27 2 92 0;
#X connect 27 3 34 1;
#X connect 27 3 35 1;
#X connect 27 3 91 0;
#X connect 27 4 36 1;
#X connect 27 4 37 1;
#X connect 27 4 93 0;
#X connect 27 5 38 1;
#X connect 27 5 39 1;
#X connect 27 5 94 0;
#X connect 27 6 40 1;
#X connect 27 6 41 1;
#X connect 27 6 95 0;
#X connect 27 7 42 1;
#X connect 27 7 43 1;
#X connect 27 7 96 0;
#X connect 28 0 13 0;
#X connect 29 0 10 0;
#X connect 30 0 13 0;
#X connect 31 0 10 0;
#X connect 32 0 13 0;
#X connect 33 0 10 0;
#X connect 34 0 13 0;
#X connect 35 0 10 0;
#X connect 36 0 13 0;
#X connect 37 0 10 0;
#X connect 38 0 13 0;
#X connect 39 0 10 0;
#X connect 40 0 13 0;
#X connect 41 0 10 0;
#X connect 42 0 13 0;
#X connect 43 0 10 0;
#X connect 44 0 50 0;
#X connect 44 1 51 0;
#X connect 45 0 50 0;
#X connect 45 1 52 0;
#X connect 46 0 50 0;
#X connect 46 1 53 0;
#X connect 47 0 50 0;
#X connect 47 1 54 0;
#X connect 48 0 50 0;
#X connect 48 1 55 0;
#X connect 49 0 50 0;
#X connect 49 1 56 0;
#X connect 50 0 27 0;
#X connect 51 0 27 0;
#X connect 51 0 57 0;
#X connect 52 0 27 0;
#X connect 52 0 57 0;
#X connect 53 0 27 0;
#X connect 53 0 57 0;
#X connect 54 0 27 0;
#X connect 54 0 57 0;
#X connect 55 0 27 0;
#X connect 55 0 57 0;
#X connect 56 0 27 0;
#X connect 56 0 57 0;
#X connect 57 0 25 3;
#X connect 57 0 77 0;
#X connect 57 0 88 0;
#X connect 57 1 62 3;
#X connect 57 1 78 0;
#X connect 57 2 63 3;
#X connect 57 2 79 0;
#X connect 57 3 64 3;
#X connect 57 3 80 0;
#X connect 57 4 65 3;
#X connect 57 4 81 0;
#X connect 57 5 66 3;
#X connect 57 5 82 0;
#X connect 57 6 67 3;
#X connect 57 6 83 0;
#X connect 57 7 68 3;
#X connect 57 7 84 0;
#X connect 59 0 60 0;
#X connect 60 0 57 0;
#X connect 61 1 8 0;
#X connect 61 2 11 0;
#X connect 62 0 30 0;
#X connect 62 3 70 0;
#X connect 62 3 85 0;
#X connect 62 4 31 0;
#X connect 63 0 32 0;
#X connect 63 3 44 0;
#X connect 63 3 71 0;
#X connect 63 4 33 0;
#X connect 64 0 34 0;
#X connect 64 3 45 0;
#X connect 64 3 72 0;
#X connect 64 4 35 0;
#X connect 65 0 36 0;
#X connect 65 3 46 0;
#X connect 65 3 73 0;
#X connect 65 4 37 0;
#X connect 66 0 38 0;
#X connect 66 3 47 0;
#X connect 66 3 74 0;
#X connect 66 4 39 0;
#X connect 67 0 40 0;
#X connect 67 3 48 0;
#X connect 67 3 75 0;
#X connect 67 4 41 0;
#X connect 68 0 42 0;
#X connect 68 3 49 0;
#X connect 68 3 76 0;
#X connect 68 4 43 0;
#X connect 85 0 50 0;
#X connect 86 0 50 0;
#X connect 86 1 26 0;
#X connect 87 0 27 0;
#X connect 87 0 57 0;
#X connect 97 0 9 0;
#X connect 97 0 12 1;
#X connect 97 0 14 1;
#X coords 0 -1 1 1 640 280 1 100 100;
