#N canvas 470 87 775 512 10;
#X obj 421 184 abs~;
#X obj 421 126 inlet~;
#X obj 420 401 outlet~;
#X obj 420 276 lop~;
#X obj 115 131 hsl 128 15 0 1 0 0 empty empty empty -2 -8 0 10 -262144
-1 -1 6000 1;
#X floatatom 248 131 5 0 0 0 - - -;
#X text 212 112 Sensitivity;
#X obj 294 147 s envfollow_sens;
#X obj 478 240 * 20000;
#X obj 478 210 r envfollow_sens;
#X floatatom 483 269 7 0 0 0 - - -;
#X obj 440 245 t b;
#X connect 0 0 3 0;
#X connect 1 0 0 0;
#X connect 3 0 2 0;
#X connect 4 0 5 0;
#X connect 5 0 4 0;
#X connect 5 0 7 0;
#X connect 8 0 3 1;
#X connect 8 0 10 0;
#X connect 8 0 11 0;
#X connect 9 0 8 0;
#X connect 11 0 3 0;
#X coords 0 -1 1 1 190 60 1 100 100;
