#N canvas 223 0 1125 493 10;
#X obj 326 49 inlet~;
#X obj 201 379 outlet~;
#X obj 567 212 inlet;
#X text 306 24 Signal input;
#X text 566 189 Mute;
#X obj 356 281 *~;
#X obj 379 240 *~;
#X obj 427 50 inlet;
#X floatatom 459 75 5 0 0 0 - - -;
#X floatatom 484 142 5 0 0 0 - - -;
#X floatatom 582 245 5 0 0 0 - - -;
#X obj 569 303 not;
#X floatatom 573 326 5 0 0 0 - - -;
#X obj 106 64 tgl 15 0 empty empty empty 17 7 0 10 -262144 -1 -1 0
1;
#X text 101 46 Mute;
#X obj 106 87 vsl 15 128 -50 6 0 0 empty empty empty 0 -9 0 10 -262144
-1 -1 9979 1;
#X obj 19 102 loadbang;
#X floatatom 124 103 5 0 0 0 - - -;
#X text 123 117 (dB);
#X floatatom 194 190 5 0 0 0 - - -;
#X obj 247 170 > 0;
#X obj 127 85 bng 15 250 50 0 empty empty empty 17 7 0 10 -258113 -1
-1;
#X obj 264 194 tgl 15 0 empty empty empty 17 7 0 10 -262144 -1 -1 0
1;
#X obj 269 219 metro 150;
#X obj 418 152 pack 0 50;
#X obj 417 183 line~;
#X obj 504 381 outlet~;
#X obj 107 224 hsl 48 15 0 1 0 0 empty empty empty -2 -8 0 10 -262144
-1 -1 2350 1;
#X floatatom 130 202 4 0 0 0 - - -;
#X text 135 185 PAN;
#X obj 18 216 loadbang;
#X text 104 239 L;
#X text 218 398 L;
#X text 138 239 R;
#X obj 483 346 *~;
#X floatatom 521 328 5 0 0 0 - - -;
#X text 524 400 R;
#X obj 419 318 !-;
#X floatatom 423 345 5 0 0 0 - - -;
#X obj 215 347 *~;
#X msg 19 126 -6;
#X msg 18 237 0.5;
#X obj 35 21 loadbang;
#X msg 35 46 0;
#X obj 137 65 tgl 15 0 empty empty empty 17 7 0 10 -262144 -1 -1 0
1;
#X text 131 46 Solo;
#X obj 635 18 inlet;
#X text 427 24 Level;
#X text 637 -2 Solo;
#X obj 425 382 outlet;
#X obj 274 381 outlet;
#X text 429 399 Solo;
#X text 282 398 Mute;
#X obj 342 383 outlet;
#X text 346 400 Level;
#X obj 412 111 adc_dbtorms;
#X floatatom 195 78 5 0 0 0 - - -;
#X obj 868 172 tgl 15 0 empty empty empty 17 7 0 10 -262144 -1 -1 0
1;
#X floatatom 879 207 5 0 0 0 - - -;
#X obj 859 220 bng 15 250 50 0 empty empty empty 17 7 0 10 -262144
-1 -1;
#X connect 0 0 6 0;
#X connect 2 0 10 0;
#X connect 2 0 13 0;
#X connect 5 0 34 0;
#X connect 5 0 39 0;
#X connect 6 0 5 0;
#X connect 7 0 8 0;
#X connect 8 0 53 0;
#X connect 8 0 55 0;
#X connect 10 0 11 0;
#X connect 10 0 50 0;
#X connect 11 0 5 1;
#X connect 11 0 12 0;
#X connect 13 0 10 0;
#X connect 15 0 17 0;
#X connect 15 0 19 0;
#X connect 16 0 40 0;
#X connect 17 0 15 0;
#X connect 17 0 8 0;
#X connect 19 0 20 0;
#X connect 20 0 22 0;
#X connect 22 0 23 0;
#X connect 23 0 21 0;
#X connect 24 0 25 0;
#X connect 25 0 6 1;
#X connect 27 0 28 0;
#X connect 28 0 27 0;
#X connect 28 0 35 0;
#X connect 30 0 41 0;
#X connect 34 0 26 0;
#X connect 35 0 34 1;
#X connect 35 0 37 0;
#X connect 37 0 38 0;
#X connect 37 0 39 1;
#X connect 39 0 1 0;
#X connect 40 0 15 0;
#X connect 41 0 27 0;
#X connect 42 0 43 0;
#X connect 43 0 13 0;
#X connect 44 0 49 0;
#X connect 44 0 56 0;
#X connect 46 0 44 0;
#X connect 55 0 24 0;
#X connect 55 0 9 0;
#X connect 57 0 58 0;
#X connect 57 0 59 0;
#X coords 0 -1 1 1 60 230 1 100 30;
