#N canvas -9 -9 1366 682 10;
#X text 447 14 Signal input;
#X text 724 8 Mute;
#X obj 495 213 *~;
#X obj 518 172 *~;
#X floatatom 667 50 5 0 0 0 - - -;
#X floatatom 647 215 5 0 0 0 - - -;
#X obj 137 64 tgl 15 0 \$0-mix1-mute-s \$0-mix1-mute-r MUTE -3 -8 0
10 -262144 -1 -1 0 1;
#X obj 139 91 vsl 15 120 -50 6 0 0 \$0-mix1-level-s \$0-mix1-level-r
empty 0 -9 0 10 -262144 -1 -1 10000 1;
#X floatatom 105 89 5 0 0 3 dB #0-mix1-level-s -;
#X obj 139 225 hsl 48 15 0 1 0 0 \$0-mix1-pan-s \$0-mix1-pan-r L________R
-4 22 0 10 -262144 -1 -1 2350 1;
#X text 372 446 L;
#X obj 726 276 *~;
#X text 758 444 R;
#X floatatom 528 280 5 0 0 0 - - -;
#X obj 344 280 *~;
#X obj 168 64 tgl 15 0 \$0-mix1-solo-s \$0-mix1-solo-r SOLO -3 -8 0
10 -262144 -1 -1 0 1;
#X text 568 2 Level;
#X text 867 1 Solo;
#X text 629 447 Solo;
#X text 526 448 Mute;
#X text 431 448 Level;
#X obj 524 253 adc_!-;
#X obj 647 192 adc_not;
#X obj 570 126 adc_dbtolin;
#X obj 18 280 loadbang;
#X obj 64 324 s \$0-mix1-mute-r;
#X msg 28 380 -6;
#X obj 65 397 s \$0-mix1-level-r;
#X msg 28 307 0;
#X msg 31 341 0;
#X obj 67 358 s \$0-mix1-solo-r;
#X msg 30 421 0.5;
#X obj 64 438 s \$0-mix1-pan-r;
#X obj 467 39 inlet~ IN;
#X obj 568 28 inlet LEVEL;
#X obj 865 21 inlet SOLO;
#X obj 725 31 inlet MUTE;
#X obj 344 427 outlet~ L;
#X obj 515 428 outlet MUTE;
#X obj 422 428 outlet LEVEL;
#X obj 865 46 s \$0-mix1-solo-r;
#X obj 621 397 r \$0-mix1-solo-s;
#X obj 621 427 outlet SOLO;
#X obj 727 424 outlet~ R;
#X obj 725 62 s \$0-mix1-mute-r;
#X obj 647 161 r \$0-mix1-mute-s;
#X obj 515 396 r \$0-mix1-mute-s;
#X obj 568 66 s \$0-mix1-level-r;
#X floatatom 759 246 5 0 0 0 - - -;
#X floatatom 103 223 5 0 0 2 PAN #0-mix1-pan-s -;
#X obj 741 215 r \$0-mix1-pan-s;
#X obj 570 101 r \$0-mix1-level-s;
#X obj 570 152 adc_smooth;
#X obj 401 395 r \$0-mix1-level-s;
#X obj 156 92 vu 15 120 \$0-mix1-rms-r empty -1 -8 0 10 -262144 -1
1 0;
#X obj 530 311 env~;
#X obj 530 334 - 100;
#X floatatom 103 157 5 0 0 3 RMS #0-mix1-rms-r -;
#X obj 530 358 s \$0-mix1-rms-r;
#X obj 376 88 env~;
#X obj 376 117 - 100;
#X obj 376 148 > -0.1;
#X obj 110 123 tgl 15 0 empty empty empty 17 7 0 10 -262144 -1 -1 0
1;
#X obj 376 197 metro 200;
#X obj 984 209 tgl 15 0 empty empty empty 17 7 0 10 -262144 -1 -1 0
1;
#X obj 983 239 metro 200;
#X obj 978 263 bng 15 250 50 0 empty empty empty 17 7 0 10 -262144
-1 -1;
#X obj 107 63 bng 15 250 50 1 empty empty empty 17 7 0 10 -262144 -1
-1;
#X connect 2 0 11 0;
#X connect 2 0 14 0;
#X connect 3 0 2 0;
#X connect 8 0 7 0;
#X connect 11 0 43 0;
#X connect 11 0 55 0;
#X connect 14 0 37 0;
#X connect 14 0 55 0;
#X connect 21 0 13 0;
#X connect 21 0 14 1;
#X connect 22 0 2 1;
#X connect 22 0 5 0;
#X connect 23 0 52 0;
#X connect 24 0 28 0;
#X connect 24 0 26 0;
#X connect 24 0 29 0;
#X connect 24 0 31 0;
#X connect 26 0 27 0;
#X connect 28 0 25 0;
#X connect 29 0 30 0;
#X connect 31 0 32 0;
#X connect 33 0 3 0;
#X connect 33 0 59 0;
#X connect 34 0 4 0;
#X connect 34 0 47 0;
#X connect 35 0 40 0;
#X connect 36 0 44 0;
#X connect 41 0 42 0;
#X connect 45 0 22 0;
#X connect 46 0 38 0;
#X connect 49 0 9 0;
#X connect 50 0 11 1;
#X connect 50 0 21 0;
#X connect 50 0 48 0;
#X connect 51 0 23 0;
#X connect 52 0 3 1;
#X connect 53 0 39 0;
#X connect 55 0 56 0;
#X connect 56 0 58 0;
#X connect 59 0 60 0;
#X connect 60 0 61 0;
#X connect 61 0 62 0;
#X connect 61 0 63 0;
#X connect 62 0 63 0;
#X connect 63 0 67 0;
#X connect 64 0 65 0;
#X connect 65 0 66 0;
#X coords 0 -1 1 1 100 230 1 100 30;
