#N canvas 262 0 1021 664 12;
#X text 200 359 2;
#X text 265 359 3;
#X text 331 359 4;
#X text 395 359 5;
#X text 459 359 6;
#X text 523 358 7;
#X text 587 358 8;
#X obj 422 727 outlet~;
#X obj 578 727 outlet~;
#X obj 657 132 adc_mix1~;
#X floatatom 807 590 5 0 0 0 - - -;
#X obj 807 618 not;
#X floatatom 853 657 5 0 0 0 - - -;
#X obj 540 658 *~;
#X obj 635 626 adc_dbtorms;
#X obj 579 695 *~;
#X obj 392 657 *~;
#X obj 421 695 *~;
#X obj 634 118 cnv 15 10 260 empty empty empty 20 12 0 14 -233017 -66577
0;
#X text 668 361 MASTER;
#X obj 108 62 inlet~;
#X obj 175 60 inlet~;
#X obj 241 63 inlet~;
#X obj 306 65 inlet~;
#X obj 370 64 inlet~;
#X obj 434 63 inlet~;
#X obj 498 62 inlet~;
#X obj 562 62 inlet~;
#X obj 175 131 adc_mix1~;
#X obj 241 131 adc_mix1~;
#X obj 306 131 adc_mix1~;
#X obj 370 131 adc_mix1~;
#X obj 434 131 adc_mix1~;
#X obj 498 131 adc_mix1~;
#X obj 562 131 adc_mix1~;
#X obj 108 131 adc_mix1~;
#X text 133 359 1;
#X obj 153 363 tgl 15 0 empty empty empty 17 7 0 10 -262144 -1 -1 0
1;
#X msg -2 392 1 0 0 0 0 0 0 0;
#X obj 282 473 unpack f f f f f f f f;
#X obj 133 542 *~;
#X obj 163 542 *~;
#X obj 202 542 *~;
#X obj 231 542 *~;
#X obj 265 541 *~;
#X obj 294 541 *~;
#X obj 331 541 *~;
#X obj 359 541 *~;
#X obj 393 541 *~;
#X obj 421 541 *~;
#X obj 455 540 *~;
#X obj 483 540 *~;
#X obj 519 540 *~;
#X obj 547 540 *~;
#X obj 578 539 *~;
#X obj 606 539 *~;
#X connect 9 1 10 0;
#X connect 9 2 14 0;
#X connect 10 0 11 0;
#X connect 11 0 12 0;
#X connect 11 0 15 1;
#X connect 11 0 17 1;
#X connect 13 0 15 0;
#X connect 14 0 16 1;
#X connect 14 0 13 1;
#X connect 15 0 8 0;
#X connect 16 0 17 0;
#X connect 17 0 7 0;
#X connect 20 0 35 0;
#X connect 21 0 28 0;
#X connect 22 0 29 0;
#X connect 23 0 30 0;
#X connect 24 0 31 0;
#X connect 25 0 32 0;
#X connect 26 0 33 0;
#X connect 27 0 34 0;
#X connect 28 0 42 0;
#X connect 28 4 43 0;
#X connect 29 0 44 0;
#X connect 29 4 45 0;
#X connect 30 0 46 0;
#X connect 30 4 47 0;
#X connect 31 0 48 0;
#X connect 31 4 49 0;
#X connect 32 0 50 0;
#X connect 32 4 51 0;
#X connect 33 0 52 0;
#X connect 33 4 53 0;
#X connect 34 0 54 0;
#X connect 34 4 55 0;
#X connect 35 0 40 0;
#X connect 35 3 37 0;
#X connect 35 3 38 0;
#X connect 35 4 41 0;
#X connect 38 0 39 0;
#X connect 39 0 40 1;
#X connect 39 0 41 1;
#X connect 39 1 42 1;
#X connect 39 1 43 1;
#X connect 39 2 44 1;
#X connect 39 2 45 1;
#X connect 39 3 46 1;
#X connect 39 3 47 1;
#X connect 39 4 48 1;
#X connect 39 4 49 1;
#X connect 39 5 50 1;
#X connect 39 5 51 1;
#X connect 39 6 52 1;
#X connect 39 6 53 1;
#X connect 39 7 54 1;
#X connect 39 7 55 1;
#X connect 40 0 16 0;
#X connect 41 0 13 0;
#X connect 42 0 16 0;
#X connect 43 0 13 0;
#X connect 44 0 16 0;
#X connect 45 0 13 0;
#X connect 46 0 16 0;
#X connect 47 0 13 0;
#X connect 48 0 16 0;
#X connect 49 0 13 0;
#X connect 50 0 16 0;
#X connect 51 0 13 0;
#X connect 52 0 16 0;
#X connect 53 0 13 0;
#X connect 54 0 16 0;
#X connect 55 0 13 0;
#X coords 0 -1 1 1 640 280 1 100 100;
