#N canvas 511 67 619 493 10;
#X obj 326 49 inlet~;
#X obj 373 263 outlet~;
#X obj 577 46 inlet;
#X text 306 24 Signal input;
#X text 576 23 Mute;
#X obj 628 45 r mix1_mute;
#X obj 365 222 *~;
#X obj 373 183 *~;
#X obj 427 50 inlet;
#X obj 477 49 r mix1_level;
#X obj 426 125 dbtorms;
#X floatatom 459 75 5 0 0 0 - - -;
#X floatatom 430 150 5 0 0 0 - - -;
#X floatatom 592 79 5 0 0 0 - - -;
#X text 453 20 Level;
#X obj 579 137 not;
#X floatatom 583 160 5 0 0 0 - - -;
#X obj 121 67 tgl 15 0 empty empty empty 17 7 0 10 -262144 -1 -1 0
1;
#X text 116 48 Mute;
#X obj 121 87 vsl 15 128 -50 6 0 0 empty empty empty 0 -9 0 10 -262144
-1 -1 11800 1;
#X obj 167 82 s mix1_mute;
#X obj 176 214 s mix1_level;
#X obj 34 41 loadbang;
#X msg 45 71 0;
#X floatatom 116 221 5 0 0 0 - - -;
#X text 114 234 (dB);
#X obj 419 99 + 100;
#X floatatom 194 190 5 0 0 0 - - -;
#X obj 247 170 > 0;
#X obj 137 35 bng 15 250 50 0 empty empty empty 17 7 0 10 -258113 -1
-1;
#X obj 264 194 tgl 15 0 empty empty empty 17 7 0 10 -262144 -1 -1 1
1;
#X obj 269 219 metro 150;
#X connect 0 0 7 0;
#X connect 2 0 13 0;
#X connect 5 0 13 0;
#X connect 6 0 1 0;
#X connect 7 0 6 0;
#X connect 8 0 11 0;
#X connect 9 0 11 0;
#X connect 10 0 7 1;
#X connect 10 0 12 0;
#X connect 11 0 26 0;
#X connect 13 0 15 0;
#X connect 15 0 6 1;
#X connect 15 0 16 0;
#X connect 17 0 20 0;
#X connect 19 0 21 0;
#X connect 19 0 24 0;
#X connect 19 0 27 0;
#X connect 22 0 23 0;
#X connect 23 0 19 0;
#X connect 23 0 17 0;
#X connect 24 0 19 0;
#X connect 26 0 10 0;
#X connect 27 0 28 0;
#X connect 28 0 30 0;
#X connect 30 0 31 0;
#X connect 31 0 29 0;
#X coords 0 -1 1 1 60 220 1 100 30;
