#N canvas 958 132 744 730 10;
#X obj 40 134 osc~ 440;
#X obj 128 12 vsl 15 64 0 1 0 0 empty empty empty 0 -9 0 10 -262144
-1 -1 6300 1;
#X obj 163 67 s mix;
#X obj 216 232 r mix;
#X floatatom 112 78 5 0 0 0 - - -;
#X obj 117 231 loadbang;
#X msg 117 257 1, f 4;
#X obj 117 298 -;
#X obj 216 268 t b f;
#X obj 86 402 *~;
#X obj 161 572 dac~;
#X obj 279 402 *~;
#X text 147 7 dry/wet;
#X text 70 423 dry;
#X obj 292 9 vsl 15 64 0 30 0 0 empty empty empty 0 -9 0 10 -262144
-1 -1 200 1;
#X obj 325 69 s rate;
#X floatatom 292 85 5 0 0 0 - - -;
#X text 316 4 Rate 0-30 Hz;
#X obj 443 9 vsl 15 64 0 30 0 0 empty empty empty 0 -9 0 10 -262144
-1 -1 1800 1;
#X text 466 4 Depth 0-30;
#X floatatom 443 85 5 0 0 0 - - -;
#X obj 480 68 s depth;
#X obj 428 177 r rate;
#X obj 572 13 vsl 15 64 0 0.99 0 0 empty empty empty 0 -9 0 10 -262144
-1 -1 1200 1;
#X floatatom 570 87 5 0 0 0 - - -;
#X obj 611 68 s feedback;
#X text 597 7 Feedback;
#X obj 58 159 s~ in;
#X obj 42 200 r~ in;
#X obj 304 202 r~ in;
#X obj 163 461 +~;
#X obj 161 526 *~;
#X obj 241 471 vsl 15 64 0 1 0 0 empty empty empty 0 -9 0 10 -262144
-1 -1 1200 1;
#X floatatom 241 546 5 0 0 0 - - -;
#X text 254 432 wet;
#X obj 484 177 r depth;
#X obj 452 255 s~ LFO;
#X obj 554 261 random 1;
#X obj 554 220 loadbang;
#X floatatom 567 287 5 0 0 0 - - -;
#X obj 303 244 delwrite~ Chorus 1000;
#X obj 470 373 vd~ Chorus;
#X obj 470 341 +~;
#X obj 454 308 r~ LFO;
#X connect 0 0 27 0;
#X connect 1 0 2 0;
#X connect 1 0 4 0;
#X connect 3 0 8 0;
#X connect 5 0 6 0;
#X connect 6 0 7 0;
#X connect 7 0 9 1;
#X connect 8 0 7 0;
#X connect 8 1 7 1;
#X connect 8 1 11 1;
#X connect 9 0 30 0;
#X connect 11 0 30 1;
#X connect 14 0 15 0;
#X connect 14 0 16 0;
#X connect 18 0 20 0;
#X connect 18 0 21 0;
#X connect 23 0 24 0;
#X connect 23 0 25 0;
#X connect 28 0 9 0;
#X connect 29 0 40 0;
#X connect 30 0 31 0;
#X connect 31 0 10 0;
#X connect 31 0 10 1;
#X connect 32 0 33 0;
#X connect 32 0 31 1;
#X connect 37 0 39 0;
#X connect 37 0 42 1;
#X connect 38 0 37 0;
#X connect 43 0 42 0;
