#N canvas 267 20 667 613 10;
#X obj 244 526 dac~;
#X obj 174 274 adc_mix1~;
#X obj 173 77 click~;
#X obj 173 49 bng 15 250 50 0 empty empty empty 17 7 0 10 -262144 -1
-1;
#X obj 278 272 adc_mix1~;
#X obj 272 111 adc_simpledelay~;
#X connect 1 0 0 0;
#X connect 2 0 1 0;
#X connect 2 0 5 0;
#X connect 3 0 2 0;
#X connect 4 4 0 1;
#X connect 5 0 1 0;
