#N canvas 0 0 1366 682 10;
#X obj 381 561 metro;
#X obj 550 528 +;
#X floatatom 550 557 5 0 0 0 - - -;
#X obj 545 460 metro;
#X floatatom 621 300 5 0 0 0 - - -;
#X floatatom 409 598 5 0 0 0 - - -;
#X text 219 255 fmin;
#X text 317 256 fmax;
#X obj 313 733 outlet~;
#X obj 313 625 +;
#X obj 335 596 random;
#X obj 321 454 -;
#X obj 258 430 t b;
#X text 412 229 Rand ON/OFF;
#X obj 684 480 random;
#X obj 747 487 loadbang;
#X obj 605 440 t b;
#X msg 731 525 25;
#X text 762 525 Minimum note duration;
#X floatatom 225 328 5 0 0 0 - - -;
#X floatatom 356 477 5 0 0 0 - - -;
#X obj 313 699 spigot~;
#X text 49 350 ON/OFF;
#X obj 173 118 hsl 128 15 20 20000 0 0 empty empty empty -2 -8 0 10
-262144 -1 -1 0 1;
#X obj 173 135 hsl 128 15 20 20000 0 0 empty empty empty -2 -8 0 10
-262144 -1 -1 700 1;
#X obj 171 199 hsl 128 15 0 10000 0 0 empty empty empty -2 -8 0 10
-262144 -1 -1 11400 1;
#X obj 112 119 tgl 15 0 empty empty empty 17 7 0 10 -262144 -1 -1 1
1;
#X text 100 135 ON/OFF;
#X text 105 183 Rand;
#X text 137 115 fmin;
#X text 137 138 fmax;
#X text 135 198 Rate;
#X text 624 237 time rate;
#X floatatom 86 400 5 0 0 0 - - -;
#X obj 110 169 tgl 15 0 empty empty empty 17 7 0 10 -262144 -1 -1 1
1;
#X floatatom 425 341 5 0 0 0 - - -;
#X floatatom 310 337 5 0 0 0 - - -;
#X obj 96 448 - 1;
#X floatatom 307 117 6 0 0 0 - - -;
#X floatatom 307 134 6 0 0 0 - - -;
#X floatatom 305 199 6 0 0 0 - - -;
#X obj 219 282 inlet fmin;
#X obj 337 280 inlet fmax;
#X obj 624 257 inlet rate;
#X obj 413 249 inlet rand;
#X obj 28 371 inlet on/off;
#X floatatom 307 154 6 0 0 0 - - -;
#X text 288 154 f0;
#X obj 176 55 loadbang;
#X msg 182 80 20000;
#X msg 228 79 200;
#X text 240 60 Default values;
#X msg 147 80 20;
#X msg 114 80 1;
#X obj 460 731 outlet;
#X text 476 712 f0;
#X obj 377 630 * 10;
#N canvas 653 87 675 558 klangfarbe 1;
#X obj 82 71 inlet;
#X text 65 42 Frequency;
#X obj 196 69 inlet;
#X text 190 40 Inharmonicity;
#X obj 300 71 inlet;
#X text 288 42 Period;
#X floatatom 83 240 5 0 0 0 - - -;
#X obj 83 277 osc~;
#X obj 83 407 *~;
#X obj 133 241 random 100;
#X obj 133 275 * 0.01;
#X floatatom 133 301 5 0 0 0 - - -;
#X obj 133 328 pack f f;
#X obj 348 52 loadbang;
#X obj 348 81 tgl 15 0 empty empty empty 17 7 0 10 -262144 -1 -1 1
1;
#X obj 348 116 metro;
#X obj 166 98 t b f;
#X obj 83 213 +;
#X obj 83 186 * 1;
#X obj 134 356 line~;
#X floatatom 234 242 5 0 0 0 - - -;
#X obj 234 279 osc~;
#X obj 234 409 *~;
#X obj 284 243 random 100;
#X obj 284 277 * 0.01;
#X floatatom 284 303 5 0 0 0 - - -;
#X obj 284 330 pack f f;
#X obj 234 215 +;
#X obj 285 358 line~;
#X floatatom 212 98 5 0 0 0 - - -;
#X obj 234 188 * 2;
#X obj 83 474 *~ 0.18;
#X obj 84 528 outlet~;
#X msg 393 106 5000;
#X floatatom 364 237 5 0 0 0 - - -;
#X obj 364 274 osc~;
#X obj 364 404 *~;
#X obj 414 238 random 100;
#X obj 414 272 * 0.01;
#X floatatom 414 298 5 0 0 0 - - -;
#X obj 414 325 pack f f;
#X obj 364 210 +;
#X obj 415 353 line~;
#X obj 364 183 * 3;
#X connect 0 0 18 0;
#X connect 0 0 30 0;
#X connect 0 0 43 0;
#X connect 2 0 16 0;
#X connect 2 0 29 0;
#X connect 4 0 12 1;
#X connect 4 0 15 1;
#X connect 4 0 26 1;
#X connect 4 0 37 1;
#X connect 6 0 7 0;
#X connect 7 0 8 0;
#X connect 8 0 31 0;
#X connect 9 0 10 0;
#X connect 10 0 11 0;
#X connect 11 0 12 0;
#X connect 12 0 19 0;
#X connect 13 0 14 0;
#X connect 14 0 15 0;
#X connect 15 0 9 0;
#X connect 15 0 23 1;
#X connect 16 0 17 0;
#X connect 16 0 27 0;
#X connect 16 0 41 0;
#X connect 16 1 17 1;
#X connect 16 1 27 1;
#X connect 16 1 41 1;
#X connect 17 0 6 0;
#X connect 18 0 17 0;
#X connect 19 0 8 1;
#X connect 20 0 21 0;
#X connect 21 0 22 0;
#X connect 22 0 31 0;
#X connect 23 0 24 0;
#X connect 24 0 25 0;
#X connect 25 0 26 0;
#X connect 26 0 28 0;
#X connect 27 0 20 0;
#X connect 28 0 22 1;
#X connect 30 0 27 0;
#X connect 31 0 32 0;
#X connect 33 0 15 1;
#X connect 34 0 35 0;
#X connect 35 0 36 0;
#X connect 36 0 31 0;
#X connect 37 0 38 0;
#X connect 38 0 39 0;
#X connect 39 0 40 0;
#X connect 40 0 42 0;
#X connect 41 0 34 0;
#X connect 42 0 36 1;
#X connect 43 0 41 0;
#X restore 340 655 pd klangfarbe;
#X obj 525 196 inlet;
#X text 503 177 Inharmonicity;
#X obj 173 175 hsl 128 15 0 0.5 0 0 empty empty empty -2 -8 0 10 -262144
-1 -1 2900 1;
#X floatatom 307 175 6 0 0 0 - - -;
#X text 129 174 Inharm;
#X floatatom 525 225 5 0 0 0 - - -;
#X floatatom 430 645 5 0 0 0 - - -;
#X connect 0 0 10 0;
#X connect 1 0 0 1;
#X connect 1 0 2 0;
#X connect 3 0 14 0;
#X connect 4 0 3 1;
#X connect 4 0 16 0;
#X connect 4 0 14 1;
#X connect 5 0 54 0;
#X connect 5 0 46 0;
#X connect 9 0 5 0;
#X connect 9 0 56 0;
#X connect 9 0 57 0;
#X connect 10 0 9 0;
#X connect 11 0 10 1;
#X connect 11 0 20 0;
#X connect 12 0 11 0;
#X connect 12 0 9 0;
#X connect 14 0 1 0;
#X connect 15 0 17 0;
#X connect 16 0 14 0;
#X connect 17 0 1 1;
#X connect 19 0 12 0;
#X connect 19 0 11 1;
#X connect 19 0 9 1;
#X connect 21 0 8 0;
#X connect 23 0 38 0;
#X connect 24 0 39 0;
#X connect 25 0 40 0;
#X connect 26 0 33 0;
#X connect 33 0 37 0;
#X connect 34 0 35 0;
#X connect 35 0 3 0;
#X connect 35 0 0 0;
#X connect 36 0 11 0;
#X connect 37 0 21 1;
#X connect 38 0 23 0;
#X connect 38 0 19 0;
#X connect 39 0 24 0;
#X connect 39 0 36 0;
#X connect 40 0 25 0;
#X connect 40 0 4 0;
#X connect 41 0 19 0;
#X connect 41 0 23 0;
#X connect 42 0 36 0;
#X connect 42 0 24 0;
#X connect 43 0 4 0;
#X connect 43 0 25 0;
#X connect 44 0 35 0;
#X connect 44 0 34 0;
#X connect 45 0 33 0;
#X connect 45 0 26 0;
#X connect 48 0 52 0;
#X connect 48 0 49 0;
#X connect 48 0 50 0;
#X connect 48 0 53 0;
#X connect 49 0 24 0;
#X connect 50 0 25 0;
#X connect 52 0 23 0;
#X connect 53 0 26 0;
#X connect 53 0 34 0;
#X connect 56 0 57 2;
#X connect 56 0 64 0;
#X connect 57 0 21 0;
#X connect 58 0 60 0;
#X connect 58 0 63 0;
#X connect 60 0 61 0;
#X connect 61 0 60 0;
#X connect 61 0 63 0;
#X connect 63 0 57 1;
#X coords 0 -1 1 1 250 150 1 100 100;
