#N canvas 451 29 1060 573 10;
#X obj 246 255 mtof;
#X obj 133 401 osc~;
#X obj 175 214 t b;
#X obj 147 215 bng 15 250 50 0 empty empty empty 17 7 0 10 -262144
-1 -1;
#X obj 134 440 *~ 0.5;
#X floatatom 166 309 5 0 0 0 - - -;
#X floatatom 268 279 5 0 0 0 - - -;
#X obj 217 186 inlet;
#X text 214 156 MIDI Note IN;
#X obj 214 288 t b;
#X floatatom 261 372 7 0 0 0 - - -;
#X obj 214 401 osc~;
#X obj 214 441 *~ 0.5;
#X obj 214 350 +;
#X obj 133 287 + 2000;
#X obj 133 254 random 1000;
#X obj 135 528 outlet~;
#X text 126 11 Implemetation of Otoacoustic Effect (aka Difference
Tones) Caution: needs to be loud !;
#X connect 0 0 6 0;
#X connect 0 0 9 0;
#X connect 0 0 13 1;
#X connect 1 0 4 0;
#X connect 2 0 3 0;
#X connect 2 0 15 0;
#X connect 4 0 16 0;
#X connect 7 0 2 0;
#X connect 7 0 0 0;
#X connect 9 0 13 0;
#X connect 11 0 12 0;
#X connect 12 0 16 0;
#X connect 13 0 10 0;
#X connect 13 0 11 0;
#X connect 14 0 5 0;
#X connect 14 0 1 0;
#X connect 14 0 13 0;
#X connect 15 0 14 0;
