#N canvas 196 26 1057 682 10;
#X floatatom 535 327 5 0 0 0 - - -;
#X obj 368 281 inlet;
#X obj 264 591 outlet~;
#X obj 538 284 inlet;
#X obj 264 557 spigot~;
#X obj 162 319 inlet;
#X obj 148 136 hsl 128 15 0 20 0 0 empty empty empty -2 -8 0 10 -262144
-1 -1 100 1;
#X obj 148 154 hsl 128 15 0 0.5 0 0 empty empty empty -2 -8 0 10 -262144
-1 -1 2500 1;
#X obj 293 116 tgl 15 0 empty empty empty 17 7 0 10 -262144 -1 -1 1
1;
#X floatatom 197 348 5 0 0 0 - - -;
#X floatatom 359 337 5 0 0 0 - - -;
#X obj 169 372 - 1;
#X floatatom 282 136 6 0 0 0 - - -;
#X floatatom 282 154 6 0 0 0 - - -;
#X text 282 100 Bypass;
#X text 160 298 Bypass;
#X obj 256 519 +~;
#X text 114 134 Rate;
#X text 103 153 Amount;
#X text 368 258 Rate;
#X obj 470 302 r amount;
#X obj 353 125 s bypass;
#X text 533 264 Amount;
#X obj 359 437 *~;
#X obj 224 314 r bypass;
#X obj 354 170 s amount;
#X obj 359 389 osc~;
#X obj 290 476 *~;
#X obj 353 147 s lforate;
#X obj 313 300 r lforate;
#X obj 421 515 snapshot~;
#X obj 421 589 outlet;
#X text 255 611 Out signal;
#X text 421 610 Out value;
#X floatatom 469 578 5 0 0 0 - - -;
#X obj 327 524 metro 0.05;
#X connect 0 0 23 1;
#X connect 1 0 10 0;
#X connect 1 0 6 0;
#X connect 3 0 0 0;
#X connect 3 0 7 0;
#X connect 4 0 2 0;
#X connect 5 0 9 0;
#X connect 5 0 8 0;
#X connect 6 0 12 0;
#X connect 6 0 28 0;
#X connect 7 0 13 0;
#X connect 7 0 25 0;
#X connect 8 0 21 0;
#X connect 9 0 11 0;
#X connect 9 0 4 1;
#X connect 10 0 26 0;
#X connect 11 0 35 0;
#X connect 12 0 6 0;
#X connect 13 0 7 0;
#X connect 16 0 4 0;
#X connect 20 0 0 0;
#X connect 23 0 27 1;
#X connect 23 0 30 0;
#X connect 24 0 9 0;
#X connect 26 0 23 0;
#X connect 27 0 16 1;
#X connect 29 0 10 0;
#X connect 30 0 31 0;
#X connect 30 0 34 0;
#X connect 35 0 30 0;
#X coords 0 -1 1 1 225 75 1 100 100;
