#N canvas 540 6 460 682 10;
#X obj 54 525 metro 50;
#X obj 77 559 snapshot~;
#X floatatom 82 578 5 0 0 0 - - -;
#X obj 191 534 vline~;
#X obj 191 442 pack f f f f f;
#X obj 70 233 inlet A;
#X obj 184 235 inlet D;
#X obj 267 234 inlet S;
#X obj 360 236 inlet R;
#X msg 191 478 0 0 \, 1 \$1 \, \$3 \$2 \$1 \, 0 \$4 \$5;
#X obj 141 372 +;
#X obj 148 334 t b;
#X obj 308 404 +;
#X obj 285 346 t b;
#X obj 190 634 outlet~ ENV;
#X obj 54 489 loadbang;
#X obj 54 508 tgl 15 0 empty empty empty 17 7 0 10 -262144 -1 -1 1
1;
#X text 72 210 Attack;
#X text 186 212 Decay;
#X text 267 211 Sustain;
#X text 362 218 Release;
#X floatatom 71 284 5 0 0 0 - - -;
#X floatatom 257 277 5 0 0 0 - - -;
#X floatatom 176 281 5 0 0 0 - - -;
#X floatatom 360 278 5 0 0 0 - - -;
#X obj 123 128 hsl 128 15 0 20000 0 0 empty empty empty -2 -8 0 10
-262144 -1 -1 3700 1;
#X obj 123 145 hsl 128 15 0 20000 0 0 empty empty empty -2 -8 0 10
-262144 -1 -1 2100 1;
#X obj 123 163 hsl 128 15 0 1 0 0 empty empty empty -2 -8 0 10 -262144
-1 -1 5100 1;
#X obj 123 180 hsl 128 15 0 20000 0 0 empty empty empty -2 -8 0 10
-262144 -1 -1 3600 1;
#X text 109 126 A;
#X text 110 144 D;
#X text 109 162 S;
#X text 109 178 R;
#X floatatom 255 128 6 0 0 0 - - -;
#X floatatom 255 145 6 0 0 0 - - -;
#X floatatom 255 162 6 0 0 0 - - -;
#X floatatom 255 179 6 0 0 0 - - -;
#X obj 312 143 s A;
#X obj 341 161 s D;
#X obj 314 177 s S;
#X obj 341 194 s R;
#X obj 32 257 r A;
#X obj 146 261 r D;
#X obj 229 258 r S;
#X obj 337 254 r R;
#X obj 274 105 tgl 15 0 empty empty empty 17 7 0 10 -262144 -1 -1 0
1;
#X text 232 103 ON/OFF;
#X obj 344 120 s envon;
#X floatatom 292 459 5 0 0 0 - - -;
#X obj 225 322 t b;
#X obj 110 600 == 0;
#X floatatom 120 625 5 0 0 0 - - -;
#X connect 0 0 1 0;
#X connect 1 0 2 0;
#X connect 2 0 50 0;
#X connect 3 0 1 0;
#X connect 3 0 14 0;
#X connect 4 0 9 0;
#X connect 4 0 48 0;
#X connect 5 0 21 0;
#X connect 6 0 23 0;
#X connect 7 0 22 0;
#X connect 8 0 24 0;
#X connect 9 0 3 0;
#X connect 10 0 12 0;
#X connect 11 0 10 0;
#X connect 11 0 4 0;
#X connect 12 0 4 4;
#X connect 13 0 12 0;
#X connect 13 0 4 0;
#X connect 15 0 16 0;
#X connect 16 0 0 0;
#X connect 21 0 4 0;
#X connect 21 0 10 0;
#X connect 22 0 4 2;
#X connect 22 0 49 0;
#X connect 23 0 11 0;
#X connect 23 0 10 1;
#X connect 23 0 4 1;
#X connect 24 0 13 0;
#X connect 24 0 12 1;
#X connect 24 0 4 3;
#X connect 25 0 33 0;
#X connect 25 0 37 0;
#X connect 26 0 34 0;
#X connect 26 0 38 0;
#X connect 27 0 35 0;
#X connect 27 0 39 0;
#X connect 28 0 36 0;
#X connect 28 0 40 0;
#X connect 33 0 25 0;
#X connect 34 0 26 0;
#X connect 35 0 27 0;
#X connect 36 0 28 0;
#X connect 41 0 21 0;
#X connect 42 0 23 0;
#X connect 43 0 22 0;
#X connect 44 0 24 0;
#X connect 45 0 47 0;
#X connect 49 0 4 0;
#X connect 50 0 51 0;
#X coords 0 -1 1 1 200 100 1 100 100;
