#N canvas 189 135 719 440 10;
#X obj 429 178 inlet~;
#X obj 429 296 outlet~;
#X obj 481 147 inlet~;
#X obj 429 270 samphold~;
#X msg 524 231 reset;
#X obj 525 205 t b b;
#X obj 166 126 bng 15 50 50 0 empty empty empty 17 7 0 10 -262144 -226533
-1;
#X obj 525 177 threshold~ 0.9 0 0.9 0;
#X connect 0 0 3 0;
#X connect 2 0 3 1;
#X connect 2 0 7 0;
#X connect 3 0 1 0;
#X connect 5 0 4 0;
#X connect 5 1 6 0;
#X connect 7 0 5 0;
#X coords 0 -1 1 1 85 60 1 100 100;
