#N canvas -1207 30 1149 682 10;
#X obj 677 567 metro 50;
#X obj 700 590 snapshot~;
#X floatatom 705 614 5 0 0 0 - - -;
#X obj 458 242 inlet A;
#X obj 549 243 inlet D;
#X obj 632 242 inlet S;
#X obj 725 244 inlet R;
#X obj 677 531 loadbang;
#X obj 677 550 tgl 15 0 empty empty empty 17 7 0 10 -262144 -1 -1 1
1;
#X text 457 224 Attack;
#X text 551 220 Decay;
#X text 632 219 Sustain;
#X text 727 226 Release;
#X floatatom 448 306 5 0 0 0 - - -;
#X floatatom 620 304 5 0 0 0 - - -;
#X floatatom 539 308 5 0 0 0 - - -;
#X floatatom 723 305 5 0 0 0 - - -;
#X obj 327 115 hsl 128 15 0 20000 0 0 empty empty empty -2 -8 0 10
-262144 -1 -1 0 1;
#X obj 327 132 hsl 128 15 0 20000 0 0 empty empty empty -2 -8 0 10
-262144 -1 -1 0 1;
#X obj 327 150 hsl 128 15 0 1 0 0 empty empty empty -2 -8 0 10 -262144
-1 -1 0 1;
#X obj 327 167 hsl 128 15 0 20000 0 0 empty empty empty -2 -8 0 10
-262144 -1 -1 0 1;
#X text 313 113 A;
#X text 314 131 D;
#X text 313 149 S;
#X text 313 165 R;
#X floatatom 459 115 6 0 0 0 - - -;
#X floatatom 459 132 6 0 0 0 - - -;
#X floatatom 459 149 6 0 0 0 - - -;
#X floatatom 459 166 6 0 0 0 - - -;
#X obj 516 130 s A;
#X obj 550 147 s D;
#X obj 518 164 s S;
#X obj 545 181 s R;
#X obj 465 285 r A;
#X obj 509 288 r D;
#X obj 592 285 r S;
#X obj 700 281 r R;
#X floatatom 536 485 5 0 0 0 - - -;
#X obj 732 638 == 0;
#X floatatom 748 661 5 0 0 0 - - -;
#X obj 152 251 inlet Gate;
#X obj 152 278 sel 0;
#X text 154 227 Gate;
#X msg 152 309 stop;
#X obj 554 561 line~;
#X obj 281 255 moses;
#X obj 282 282 t b b;
#X obj 328 313 t b, f 4;
#X obj 414 390 del;
#X obj 521 443 f;
#X msg 267 412 0;
#X obj 553 661 outlet~ adsr;
#X obj 447 467 pack 1 \$1;
#X obj 576 462 pack 0 \$1;
#X obj 702 447 pack 0 \$1;
#X obj 419 329 t b;
#X obj 618 340 t b;
#X obj 521 340 t b;
#X obj 700 365 t b;
#X obj 368 28 loadbang;
#X msg 323 70 500;
#X msg 362 69 500;
#X msg 399 69 0.5;
#X msg 442 69 500;
#X connect 0 0 1 0;
#X connect 1 0 2 0;
#X connect 2 0 38 0;
#X connect 3 0 13 0;
#X connect 4 0 15 0;
#X connect 5 0 14 0;
#X connect 6 0 16 0;
#X connect 7 0 8 0;
#X connect 8 0 0 0;
#X connect 13 0 48 1;
#X connect 13 0 52 1;
#X connect 13 0 55 0;
#X connect 14 0 49 1;
#X connect 14 0 56 0;
#X connect 15 0 53 1;
#X connect 15 0 57 0;
#X connect 16 0 58 0;
#X connect 16 0 54 1;
#X connect 17 0 25 0;
#X connect 17 0 29 0;
#X connect 18 0 26 0;
#X connect 18 0 30 0;
#X connect 19 0 27 0;
#X connect 19 0 31 0;
#X connect 20 0 28 0;
#X connect 20 0 32 0;
#X connect 25 0 17 0;
#X connect 26 0 18 0;
#X connect 27 0 19 0;
#X connect 28 0 20 0;
#X connect 33 0 13 0;
#X connect 34 0 15 0;
#X connect 35 0 14 0;
#X connect 36 0 16 0;
#X connect 38 0 39 0;
#X connect 40 0 41 0;
#X connect 41 0 43 0;
#X connect 41 0 54 0;
#X connect 41 1 45 0;
#X connect 43 0 48 0;
#X connect 44 0 1 0;
#X connect 44 0 51 0;
#X connect 45 0 46 0;
#X connect 45 1 47 0;
#X connect 46 0 47 0;
#X connect 46 1 50 0;
#X connect 47 0 48 0;
#X connect 47 0 52 0;
#X connect 48 0 49 0;
#X connect 49 0 53 0;
#X connect 50 0 44 0;
#X connect 52 0 44 0;
#X connect 53 0 37 0;
#X connect 53 0 44 0;
#X connect 54 0 44 0;
#X connect 55 0 48 0;
#X connect 55 0 52 0;
#X connect 56 0 49 0;
#X connect 57 0 53 0;
#X connect 58 0 54 0;
#X connect 59 0 60 0;
#X connect 59 0 61 0;
#X connect 59 0 62 0;
#X connect 59 0 63 0;
#X connect 60 0 17 0;
#X connect 61 0 18 0;
#X connect 62 0 19 0;
#X connect 63 0 20 0;
#X coords 0 -1 1 1 200 85 1 300 100;
