#N canvas 0 0 1366 682 10;
#X obj 381 561 metro;
#X obj 445 522 +;
#X floatatom 445 551 5 0 0 0 - - -;
#X obj 440 454 metro;
#X floatatom 542 289 5 0 0 0 - - -;
#X floatatom 364 634 5 0 0 0 - - -;
#X text 219 255 fmin;
#X text 317 256 fmax;
#X obj 313 733 outlet~;
#X obj 313 625 +;
#X obj 335 596 random;
#X obj 321 454 -;
#X obj 258 430 t b;
#X text 446 226 Rand ON/OFF;
#X obj 500 463 random;
#X obj 563 470 loadbang;
#X obj 500 434 t b;
#X msg 547 508 25;
#X text 578 508 Minimum note duration;
#X floatatom 225 328 5 0 0 0 - - -;
#X floatatom 356 477 5 0 0 0 - - -;
#X obj 313 699 spigot~;
#X text 49 350 ON/OFF;
#X obj 173 118 hsl 128 15 20 20000 0 0 empty empty empty -2 -8 0 10
-262144 -1 -1 1259 1;
#X obj 173 135 hsl 128 15 20 20000 0 0 empty empty empty -2 -8 0 10
-262144 -1 -1 6344 1;
#X obj 172 175 hsl 128 15 0 10000 0 0 empty empty empty -2 -8 0 10
-262144 -1 -1 8993 1;
#X obj 112 119 tgl 15 0 empty empty empty 17 7 0 10 -262144 -1 -1 1
1;
#X text 100 135 ON/OFF;
#X text 105 183 Rand;
#X text 137 115 fmin;
#X text 137 138 fmax;
#X text 136 174 Rate;
#X text 545 226 time rate;
#X floatatom 86 400 5 0 0 0 - - -;
#X obj 110 169 tgl 15 0 empty empty empty 17 7 0 10 -262144 -1 -1 1
1;
#X floatatom 425 341 5 0 0 0 - - -;
#X floatatom 310 337 5 0 0 0 - - -;
#X obj 96 448 - 1;
#X floatatom 307 117 6 0 0 0 - - -;
#X floatatom 307 134 6 0 0 0 - - -;
#X floatatom 306 175 6 0 0 0 - - -;
#X obj 219 282 inlet fmin;
#X obj 337 280 inlet fmax;
#X obj 545 246 inlet rate;
#X obj 447 246 inlet rand;
#X obj 28 371 inlet on/off;
#X floatatom 307 154 6 0 0 0 - - -;
#X text 288 154 f0;
#X obj 176 55 loadbang;
#X msg 182 80 20000;
#X msg 228 79 200;
#X text 240 60 Default values;
#X msg 147 80 20;
#X msg 114 80 1;
#X obj 460 731 outlet;
#X text 476 712 f0;
#X obj 313 654 rissetbell~;
#X connect 0 0 10 0;
#X connect 1 0 0 1;
#X connect 1 0 2 0;
#X connect 3 0 14 0;
#X connect 4 0 3 1;
#X connect 4 0 16 0;
#X connect 4 0 14 1;
#X connect 5 0 54 0;
#X connect 5 0 46 0;
#X connect 9 0 5 0;
#X connect 9 0 56 0;
#X connect 10 0 9 0;
#X connect 11 0 10 1;
#X connect 11 0 20 0;
#X connect 12 0 11 0;
#X connect 12 0 9 0;
#X connect 14 0 1 0;
#X connect 15 0 17 0;
#X connect 16 0 14 0;
#X connect 17 0 1 1;
#X connect 19 0 12 0;
#X connect 19 0 11 1;
#X connect 19 0 9 1;
#X connect 21 0 8 0;
#X connect 23 0 38 0;
#X connect 24 0 39 0;
#X connect 25 0 40 0;
#X connect 26 0 33 0;
#X connect 33 0 37 0;
#X connect 34 0 35 0;
#X connect 35 0 3 0;
#X connect 35 0 0 0;
#X connect 36 0 11 0;
#X connect 37 0 21 1;
#X connect 38 0 23 0;
#X connect 38 0 19 0;
#X connect 39 0 24 0;
#X connect 39 0 36 0;
#X connect 40 0 25 0;
#X connect 40 0 4 0;
#X connect 41 0 19 0;
#X connect 41 0 23 0;
#X connect 42 0 36 0;
#X connect 42 0 24 0;
#X connect 43 0 4 0;
#X connect 43 0 25 0;
#X connect 44 0 35 0;
#X connect 44 0 34 0;
#X connect 45 0 33 0;
#X connect 45 0 26 0;
#X connect 48 0 52 0;
#X connect 48 0 49 0;
#X connect 48 0 50 0;
#X connect 48 0 53 0;
#X connect 49 0 24 0;
#X connect 50 0 25 0;
#X connect 52 0 23 0;
#X connect 53 0 26 0;
#X connect 53 0 34 0;
#X connect 56 0 21 0;
#X coords 0 -1 1 1 250 100 1 100 100;
