#N canvas 176 37 868 665 10;
#X obj 313 654 osc~;
#X obj 381 561 metro;
#X obj 445 522 +;
#X floatatom 445 551 5 0 0 0 - - -;
#X obj 440 454 metro;
#X floatatom 542 289 5 0 0 0 - - -;
#X floatatom 352 650 5 0 0 0 - - -;
#X text 247 229 fmin;
#X text 345 230 fmax;
#X obj 313 733 outlet~;
#X obj 313 625 +;
#X obj 335 596 random;
#X obj 321 454 -;
#X obj 258 430 t b;
#X text 446 226 Rand ON/OFF;
#X obj 500 463 random;
#X obj 563 470 loadbang;
#X obj 500 434 t b;
#X msg 547 508 25;
#X text 578 508 Minimum note duration;
#X floatatom 253 302 5 0 0 0 - - -;
#X floatatom 356 477 5 0 0 0 - - -;
#X obj 313 699 spigot~;
#X text 49 350 ON/OFF;
#X obj 173 118 hsl 128 15 20 20000 0 0 empty empty empty -2 -8 0 10
-262144 -1 -1 0 1;
#X obj 173 135 hsl 128 15 20 20000 0 0 empty empty empty -2 -8 0 10
-262144 -1 -1 6344 1;
#X obj 172 175 hsl 128 15 0 5000 0 0 empty empty empty -2 -8 0 10 -262144
-1 -1 267 1;
#X obj 112 119 tgl 15 0 empty empty empty 17 7 0 10 -262144 -1 -1 1
1;
#X text 100 135 ON/OFF;
#X text 105 183 Rand;
#X text 137 115 fmin;
#X text 137 138 fmax;
#X text 136 174 Rate;
#X text 545 226 time rate;
#X floatatom 86 400 5 0 0 0 - - -;
#X obj 110 169 tgl 15 0 empty empty empty 17 7 0 10 -262144 -1 -1 1
1;
#X floatatom 425 341 5 0 0 0 - - -;
#X obj 65 134 s on;
#X obj 113 366 r on;
#X obj 384 304 r rand;
#X obj 53 184 s rand;
#X floatatom 338 311 5 0 0 0 - - -;
#X obj 299 280 r fmax;
#X obj 432 150 s fmax;
#X obj 381 134 s fmin;
#X obj 381 187 s rate;
#X obj 499 260 r rate;
#X obj 196 272 r fmin;
#X obj 96 448 - 1;
#X floatatom 307 117 6 0 0 0 - - -;
#X floatatom 307 134 6 0 0 0 - - -;
#X floatatom 306 175 6 0 0 0 - - -;
#X obj 247 256 inlet fmin;
#X obj 347 255 inlet fmax;
#X obj 545 246 inlet rate;
#X obj 447 246 inlet rand;
#X obj 28 371 inlet on/off;
#X obj 367 681 s f0;
#X obj 381 158 r f0;
#X floatatom 307 154 6 0 0 0 - - -;
#X text 288 154 f0;
#X connect 0 0 22 0;
#X connect 1 0 11 0;
#X connect 2 0 1 1;
#X connect 2 0 3 0;
#X connect 4 0 15 0;
#X connect 5 0 4 1;
#X connect 5 0 17 0;
#X connect 5 0 15 1;
#X connect 6 0 57 0;
#X connect 10 0 0 0;
#X connect 10 0 6 0;
#X connect 11 0 10 0;
#X connect 12 0 11 1;
#X connect 12 0 21 0;
#X connect 13 0 12 0;
#X connect 13 0 10 0;
#X connect 15 0 2 0;
#X connect 16 0 18 0;
#X connect 17 0 15 0;
#X connect 18 0 2 1;
#X connect 20 0 13 0;
#X connect 20 0 12 1;
#X connect 20 0 10 1;
#X connect 22 0 9 0;
#X connect 24 0 44 0;
#X connect 24 0 49 0;
#X connect 25 0 43 0;
#X connect 25 0 50 0;
#X connect 26 0 45 0;
#X connect 26 0 51 0;
#X connect 27 0 37 0;
#X connect 34 0 48 0;
#X connect 35 0 40 0;
#X connect 36 0 4 0;
#X connect 36 0 1 0;
#X connect 38 0 34 0;
#X connect 39 0 36 0;
#X connect 41 0 12 0;
#X connect 42 0 41 0;
#X connect 46 0 5 0;
#X connect 47 0 20 0;
#X connect 48 0 22 1;
#X connect 49 0 24 0;
#X connect 50 0 25 0;
#X connect 51 0 26 0;
#X connect 52 0 20 0;
#X connect 52 0 24 0;
#X connect 53 0 41 0;
#X connect 53 0 25 0;
#X connect 54 0 5 0;
#X connect 54 0 26 0;
#X connect 55 0 36 0;
#X connect 55 0 35 0;
#X connect 56 0 34 0;
#X connect 56 0 27 0;
#X connect 58 0 59 0;
#X coords 0 -1 1 1 250 100 1 100 100;
