#N canvas 0 0 1366 664 10;
#X msg 175 112 440;
#X floatatom 37 149 5 0 0 0 - - -;
#X text 60 114 frequency (Hz);
#X msg 480 22 60000;
#X floatatom 375 44 5 0 0 0 - - -;
#X text 417 43 duration (ms);
#X obj 343 85 float;
#X obj 274 133 * 1;
#X obj 302 133 * 0.9;
#X obj 346 133 * 0.65;
#X obj 392 133 * 0.55;
#X obj 441 133 * 0.325;
#X obj 497 133 * 0.35;
#X obj 334 168 * 0.25;
#X obj 384 168 * 0.2;
#X obj 426 169 * 0.15;
#X obj 474 169 * 0.1;
#X obj 520 169 * 0.075;
#X obj 37 233 * 0.56;
#X obj 216 272 + 1;
#X obj 394 227 * 0.52;
#X obj 566 255 + 1.7;
#X obj 750 240 * 1.19;
#X obj 925 240 * 1.7;
#X obj 36 329 osc~;
#X obj 78 354 vline~;
#X obj 76 393 *~;
#X obj 76 427 *~;
#X obj 37 481 *~;
#X obj 216 329 osc~;
#X obj 257 355 vline~;
#X obj 255 394 *~;
#X obj 255 428 *~;
#X obj 217 481 *~;
#X obj 394 330 osc~;
#X obj 435 356 vline~;
#X obj 433 395 *~;
#X obj 433 429 *~;
#X obj 395 482 *~;
#X obj 566 330 osc~;
#X obj 607 356 vline~;
#X obj 605 395 *~;
#X obj 605 429 *~;
#X obj 567 482 *~;
#X obj 750 331 osc~;
#X obj 791 357 vline~;
#X obj 789 396 *~;
#X obj 789 430 *~;
#X obj 751 483 *~;
#X obj 925 332 osc~;
#X obj 966 358 vline~;
#X obj 964 397 *~;
#X obj 964 431 *~;
#X obj 926 484 *~;
#X obj 173 91 loadbang;
#X obj 480 1 loadbang;
#X msg 80 328 0 \, 0.562 5 0 \, 0 \$1 5;
#X msg 257 328 0 \, 0.509 5 0 \, 0 \$1 5;
#X msg 607 329 0 \, 0.651 5 0 \, 0 \$1 5;
#X msg 437 330 0 \, 0.562 5 0 \, 0 \$1 5;
#X msg 793 331 0 \, 0.651 5 0 \, 0 \$1 5;
#X msg 968 332 0 \, 0.651 5 0 \, 0 \$1 5;
#X obj 216 577 osc~;
#X obj 257 603 vline~;
#X obj 255 642 *~;
#X obj 255 676 *~;
#X obj 217 729 *~;
#X obj 216 520 + 2;
#X msg 257 576 0 \, 0.618 5 0 \, 0 \$1 5;
#X obj 396 577 osc~;
#X obj 437 603 vline~;
#X obj 435 642 *~;
#X obj 435 676 *~;
#X obj 397 729 *~;
#X msg 437 576 0 \, 0.604 5 0 \, 0 \$1 5;
#X obj 396 520 + 2.74;
#X obj 587 575 osc~;
#X obj 628 601 vline~;
#X obj 626 640 *~;
#X obj 626 674 *~;
#X obj 588 727 *~;
#X msg 628 574 0 \, 0.604 5 0 \, 0 \$1 5;
#X obj 587 519 + 3;
#X obj 771 575 osc~;
#X obj 812 601 vline~;
#X obj 810 640 *~;
#X obj 810 674 *~;
#X obj 772 727 *~;
#X obj 771 519 + 3.76;
#X msg 812 574 0 \, 0.562 5 0 \, 0 \$1 5;
#X obj 963 575 osc~;
#X obj 1004 601 vline~;
#X obj 1002 640 *~;
#X obj 1002 674 *~;
#X obj 964 727 *~;
#X obj 963 519 + 4.07;
#X obj 36 814 *~ 0.1;
#X msg 1004 575 0 \, 0.604 5 0 \, 0 \$1 5;
#X obj 6 47 inlet;
#X obj 127 12 bng 30 250 50 0 empty empty empty 17 7 0 10 -262144 -1
-1;
#X obj 62 87 inlet;
#X obj 370 4 inlet;
#X obj 37 843 outlet~;
#X connect 0 0 1 0;
#X connect 1 0 18 0;
#X connect 1 0 20 0;
#X connect 1 0 22 0;
#X connect 1 0 23 0;
#X connect 1 0 67 0;
#X connect 1 0 75 0;
#X connect 1 0 82 0;
#X connect 1 0 88 0;
#X connect 1 0 95 0;
#X connect 3 0 4 0;
#X connect 4 0 6 1;
#X connect 6 0 7 0;
#X connect 6 0 8 0;
#X connect 6 0 9 0;
#X connect 6 0 10 0;
#X connect 6 0 11 0;
#X connect 6 0 12 0;
#X connect 6 0 13 0;
#X connect 6 0 14 0;
#X connect 6 0 15 0;
#X connect 6 0 16 0;
#X connect 6 0 17 0;
#X connect 7 0 56 0;
#X connect 8 0 57 0;
#X connect 9 0 59 0;
#X connect 10 0 58 0;
#X connect 11 0 60 0;
#X connect 12 0 61 0;
#X connect 13 0 68 0;
#X connect 14 0 74 0;
#X connect 15 0 81 0;
#X connect 16 0 89 0;
#X connect 17 0 97 0;
#X connect 18 0 24 0;
#X connect 18 0 19 0;
#X connect 19 0 29 0;
#X connect 20 0 34 0;
#X connect 20 0 21 0;
#X connect 21 0 39 0;
#X connect 22 0 44 0;
#X connect 23 0 49 0;
#X connect 24 0 28 0;
#X connect 25 0 26 0;
#X connect 25 0 26 1;
#X connect 26 0 27 0;
#X connect 26 0 27 1;
#X connect 27 0 28 1;
#X connect 28 0 96 0;
#X connect 29 0 33 0;
#X connect 30 0 31 0;
#X connect 30 0 31 1;
#X connect 31 0 32 0;
#X connect 31 0 32 1;
#X connect 32 0 33 1;
#X connect 33 0 96 0;
#X connect 34 0 38 0;
#X connect 35 0 36 0;
#X connect 35 0 36 1;
#X connect 36 0 37 0;
#X connect 36 0 37 1;
#X connect 37 0 38 1;
#X connect 38 0 96 0;
#X connect 39 0 43 0;
#X connect 40 0 41 0;
#X connect 40 0 41 1;
#X connect 41 0 42 0;
#X connect 41 0 42 1;
#X connect 42 0 43 1;
#X connect 43 0 96 0;
#X connect 44 0 48 0;
#X connect 45 0 46 0;
#X connect 45 0 46 1;
#X connect 46 0 47 0;
#X connect 46 0 47 1;
#X connect 47 0 48 1;
#X connect 48 0 96 0;
#X connect 49 0 53 0;
#X connect 50 0 51 0;
#X connect 50 0 51 1;
#X connect 51 0 52 0;
#X connect 51 0 52 1;
#X connect 52 0 53 1;
#X connect 53 0 96 0;
#X connect 54 0 0 0;
#X connect 55 0 3 0;
#X connect 56 0 25 0;
#X connect 57 0 30 0;
#X connect 58 0 40 0;
#X connect 59 0 35 0;
#X connect 60 0 45 0;
#X connect 61 0 50 0;
#X connect 62 0 66 0;
#X connect 63 0 64 0;
#X connect 63 0 64 1;
#X connect 64 0 65 0;
#X connect 64 0 65 1;
#X connect 65 0 66 1;
#X connect 66 0 96 0;
#X connect 67 0 62 0;
#X connect 68 0 63 0;
#X connect 69 0 73 0;
#X connect 70 0 71 0;
#X connect 70 0 71 1;
#X connect 71 0 72 0;
#X connect 71 0 72 1;
#X connect 72 0 73 1;
#X connect 73 0 96 0;
#X connect 74 0 70 0;
#X connect 75 0 69 0;
#X connect 76 0 80 0;
#X connect 77 0 78 0;
#X connect 77 0 78 1;
#X connect 78 0 79 0;
#X connect 78 0 79 1;
#X connect 79 0 80 1;
#X connect 80 0 96 0;
#X connect 81 0 77 0;
#X connect 82 0 76 0;
#X connect 83 0 87 0;
#X connect 84 0 85 0;
#X connect 84 0 85 1;
#X connect 85 0 86 0;
#X connect 85 0 86 1;
#X connect 86 0 87 1;
#X connect 87 0 96 0;
#X connect 88 0 83 0;
#X connect 89 0 84 0;
#X connect 90 0 94 0;
#X connect 91 0 92 0;
#X connect 91 0 92 1;
#X connect 92 0 93 0;
#X connect 92 0 93 1;
#X connect 93 0 94 1;
#X connect 94 0 96 0;
#X connect 95 0 90 0;
#X connect 96 0 102 0;
#X connect 97 0 91 0;
#X connect 98 0 6 0;
#X connect 99 0 6 0;
#X connect 100 0 1 0;
#X connect 101 0 4 0;
