#N canvas 782 110 450 537 10;
#X obj 93 81 adc_dbtorms;
#X floatatom 93 125 5 0 0 0 - - -;
#X msg 93 45 -6;
#X obj 240 86 pow;
#X floatatom 246 132 5 0 0 0 - - -;
#X msg 216 49 10;
#X obj 309 36 * 0.05;
#X obj 259 53 t b;
#X obj 27 81 dbtorms;
#X obj 127 0 loadbang;
#X floatatom 27 123 5 0 0 0 - - -;
#X obj 126 204 loadbang;
#X msg 32 248 0.5;
#X obj 32 287 rmstodb;
#X floatatom 32 328 5 0 0 0 - - -;
#X msg 129 247 0.5;
#X obj 129 286 adc_rmstodb;
#X floatatom 129 328 5 0 0 0 - - -;
#X msg 237 323 20;
#X obj 252 402 *;
#X obj 259 367 t b;
#X msg 268 253 0.5;
#X floatatom 253 441 5 0 0 0 - - -;
#X obj 298 280 log;
#X floatatom 397 278 5 0 0 0 - - -;
#X floatatom 263 298 5 0 0 0 - - -;
#X obj 322 326 /;
#X obj 334 294 t b;
#X msg 370 222 10;
#X obj 395 251 log;
#X text 22 147 built-in;
#X msg 28 42 -6;
#X text 94 146 custom;
#X text 239 153 10^(x/20);
#X text 27 349 built-in;
#X text 129 347 custom;
#X text 242 463 20*log10(x);
#X connect 0 0 1 0;
#X connect 2 0 0 0;
#X connect 2 0 6 0;
#X connect 3 0 4 0;
#X connect 5 0 3 0;
#X connect 6 0 7 0;
#X connect 6 0 3 1;
#X connect 7 0 3 0;
#X connect 8 0 10 0;
#X connect 9 0 31 0;
#X connect 9 0 2 0;
#X connect 9 0 5 0;
#X connect 11 0 12 0;
#X connect 11 0 15 0;
#X connect 11 0 18 0;
#X connect 11 0 21 0;
#X connect 11 0 28 0;
#X connect 12 0 13 0;
#X connect 13 0 14 0;
#X connect 15 0 16 0;
#X connect 16 0 17 0;
#X connect 18 0 19 0;
#X connect 19 0 22 0;
#X connect 20 0 19 0;
#X connect 21 0 23 0;
#X connect 23 0 25 0;
#X connect 23 0 26 0;
#X connect 26 0 19 1;
#X connect 26 0 20 0;
#X connect 27 0 26 0;
#X connect 28 0 29 0;
#X connect 29 0 24 0;
#X connect 29 0 26 1;
#X connect 29 0 27 0;
#X connect 31 0 8 0;
