#N canvas 663 0 682 682 10;
#X obj 113 178 tgl 15 0 \$0-phaseinvert-bypass-s \$0-phaseinvert-bypass-r
empty 17 7 0 10 -262144 -1 -1 0 1;
#X obj 43 116 loadbang;
#X msg 43 141 0;
#X obj 153 162 vradio 15 1 0 3 \$0-phaseinvert-side-s \$0-phaseinvert-side-r
empty 0 -8 0 10 -262144 -1 -1 2;
#X text 172 161 L;
#X text 172 176 R;
#X obj 137 229 r \$0-phaseinvert-bypass-s;
#X floatatom 104 255 5 0 0 0 - - -;
#X obj 296 321 spigot~;
#X obj 149 271 adc_not;
#X floatatom 149 299 5 0 0 0 - - -;
#X obj 295 509 outlet~ L;
#X obj 427 510 outlet~ R;
#X obj 464 412 adc_phaseinvert_processor;
#X obj 580 375 r \$0-phaseinvert-side-s;
#X obj 297 166 inlet~ L;
#X obj 425 165 inlet~ R;
#X obj 426 324 spigot~;
#X obj 529 349 unsig~;
#X floatatom 526 310 5 0 0 0 - - -;
#X text 140 143 INVERT;
#X text 172 190 BOTH;
#X text 102 159 BYPASS;
#X connect 1 0 2 0;
#X connect 2 0 0 0;
#X connect 6 0 7 0;
#X connect 6 0 9 0;
#X connect 8 0 11 0;
#X connect 8 1 13 0;
#X connect 9 0 10 0;
#X connect 9 0 8 1;
#X connect 9 0 17 1;
#X connect 13 0 11 0;
#X connect 13 1 12 0;
#X connect 13 1 18 0;
#X connect 14 0 13 2;
#X connect 15 0 8 0;
#X connect 16 0 17 0;
#X connect 17 0 12 0;
#X connect 17 1 13 1;
#X connect 18 0 19 0;
#X coords 0 -1 1 1 100 120 1 100 100;
