#N canvas 302 74 895 538 10;
#X obj 24 362 outlet~ L;
#X obj 160 361 outlet~ R;
#X floatatom 327 95 5 0 0 0 - - -;
#X obj 49 62 inlet~ L;
#X obj 314 63 inlet side;
#X obj 193 60 inlet~ R;
#X obj 284 146 select 0 1 2;
#X obj 193 287 spigot~;
#X obj 149 314 *~ -1;
#X obj 243 208 unpack f f;
#X floatatom 237 230 5 0 0 0 - - -;
#X floatatom 316 226 5 0 0 0 - - -;
#X msg 283 171 0 1;
#X msg 327 171 1 0;
#X msg 375 171 0 0;
#X obj 49 291 spigot~;
#X obj 4 320 *~ -1;
#X connect 3 0 15 0;
#X connect 4 0 2 0;
#X connect 4 0 6 0;
#X connect 5 0 7 0;
#X connect 6 0 12 0;
#X connect 6 1 13 0;
#X connect 6 2 14 0;
#X connect 7 0 8 0;
#X connect 7 1 1 0;
#X connect 8 0 1 0;
#X connect 9 0 10 0;
#X connect 9 0 15 1;
#X connect 9 1 11 0;
#X connect 9 1 7 1;
#X connect 12 0 9 0;
#X connect 13 0 9 0;
#X connect 14 0 9 0;
#X connect 15 0 16 0;
#X connect 15 1 0 0;
#X connect 16 0 0 0;
