#N canvas 598 88 845 538 10;
#X obj 61 64 inlet~ IN;
#X obj 443 66 inlet WAVE;
#X obj 605 280 inlet AMOUNT;
#X obj 443 142 select 0 1 2;
#X obj 239 172 osc~;
#X obj 198 323 *~;
#X obj 467 194 unpack f f f;
#X obj 237 255 spigot~;
#X obj 280 172 phasor~;
#X obj 337 173 square~;
#X obj 290 255 spigot~;
#X obj 346 255 spigot~;
#X obj 280 197 -~ 0.5;
#X obj 281 223 *~ 2;
#X msg 441 170 0 1 1;
#X msg 495 169 1 0 1;
#X msg 551 169 1 1 0;
#X obj 59 505 outlet~ OUT L;
#X obj 60 444 *~;
#X obj 350 367 expr~ sin(0.25*3.14*($v1 + 1));
#X obj 334 452 *~;
#X obj 335 510 outlet~ OUT R;
#X obj 269 66 inlet RATE;
#X obj 94 366 expr~ cos(0.25*3.14*($v1 + 1));
#X obj 123 412 adc_smooth~;
#X obj 376 403 adc_smooth~;
#X connect 0 0 18 0;
#X connect 0 0 20 0;
#X connect 1 0 3 0;
#X connect 2 0 5 1;
#X connect 3 0 14 0;
#X connect 3 1 15 0;
#X connect 3 2 16 0;
#X connect 4 0 7 0;
#X connect 5 0 19 0;
#X connect 5 0 23 0;
#X connect 6 0 7 1;
#X connect 6 1 10 1;
#X connect 6 2 11 1;
#X connect 7 0 5 0;
#X connect 8 0 12 0;
#X connect 9 0 11 0;
#X connect 10 0 5 0;
#X connect 11 0 5 0;
#X connect 12 0 13 0;
#X connect 13 0 10 0;
#X connect 14 0 6 0;
#X connect 15 0 6 0;
#X connect 16 0 6 0;
#X connect 18 0 17 0;
#X connect 19 0 25 0;
#X connect 20 0 21 0;
#X connect 22 0 4 0;
#X connect 22 0 8 0;
#X connect 22 0 9 0;
#X connect 23 0 24 0;
#X connect 24 0 18 1;
#X connect 25 0 20 1;
