#N canvas 309 18 958 665 10;
#X obj 348 573 outlet~;
#X obj 335 498 spigot~;
#X obj 334 331 inlet;
#X obj 111 147 tgl 15 0 empty empty empty 17 7 0 10 -262144 -1 -1 0
1;
#X floatatom 318 368 5 0 0 0 - - -;
#X text 104 129 Bypass;
#X obj 37 302 inlet~;
#X text 24 280 Input signal;
#X text 332 310 Bypass;
#X obj 183 375 *~;
#X obj 42 124 loadbang;
#X msg 43 145 0;
#X obj 162 496 spigot~;
#X obj 273 397 adc_not;
#X obj 200 572 outlet~;
#X obj 208 330 loadbang;
#X obj 152 130 vradio 15 1 0 3 empty empty empty 0 -8 0 10 -262144
-1 -1 1;
#X text 171 129 L;
#X text 171 144 R;
#X text 171 158 Both;
#X msg 209 353 -1;
#X text 139 111 Invert;
#X obj 207 194 select 0 1 2;
#X obj 449 499 spigot~;
#X msg 416 410 0;
#X obj 225 496 spigot~;
#X text 213 588 L;
#X text 362 592 R;
#X msg 451 410 1;
#X connect 1 0 14 0;
#X connect 1 1 0 0;
#X connect 2 0 4 0;
#X connect 2 0 3 0;
#X connect 3 0 4 0;
#X connect 4 0 1 1;
#X connect 4 0 13 0;
#X connect 4 0 23 1;
#X connect 6 0 12 0;
#X connect 6 0 9 0;
#X connect 6 0 25 0;
#X connect 9 0 1 0;
#X connect 9 0 23 0;
#X connect 10 0 11 0;
#X connect 11 0 3 0;
#X connect 12 0 0 0;
#X connect 12 0 14 0;
#X connect 13 0 12 1;
#X connect 15 0 20 0;
#X connect 16 0 22 0;
#X connect 20 0 9 1;
#X connect 22 0 24 0;
#X connect 22 1 28 0;
#X connect 24 0 25 1;
#X connect 24 0 1 1;
#X connect 25 0 0 0;
#X connect 25 1 14 0;
#X connect 28 0 1 1;
#X connect 28 0 25 1;
#X coords 0 -1 1 1 100 80 1 100 100;
