#N canvas 0 0 1366 682 10;
#X obj 474 334 spigot~;
#X obj 756 113 adc_not;
#X floatatom 756 141 5 0 0 0 - - -;
#X obj 473 561 outlet~ L;
#X obj 1044 557 outlet~ R;
#X obj 475 179 inlet~ L;
#X obj 1043 176 inlet~ R;
#X obj 1044 335 spigot~;
#X obj 520 459 adc_!-;
#X obj 505 485 *~;
#X obj 657 503 *~;
#X obj 1125 185 inlet~ FM;
#X obj 1134 226 *~;
#X obj 670 309 +~;
#X obj 717 298 *~;
#X obj 1118 462 adc_!-;
#X obj 1103 488 *~;
#X obj 1064 496 *~;
#X obj 159 164 hsl 128 15 0 1 0 0 \$0-autopan-drywet-s \$0-autopan-drywet-r
DRY/WET -48 8 0 10 -228856 -1 -1 12700 1;
#X floatatom 295 164 7 0 0 0 - #0-autopan-drywet-s -;
#X obj 159 141 hsl 128 15 0 1 0 0 \$0-autopan-modamount-s \$0-autopan-modamount-r
MOD_AMT -48 8 0 10 -261682 -1 -1 0 1;
#X floatatom 295 141 7 0 0 0 - #0-autopan-modamount-s -;
#X obj 159 187 hsl 128 15 0.1 20 0 0 \$0-autopan-rate-s \$0-autopan-rate-r
RATE -32 8 0 10 -262144 -1 -1 0 1;
#X floatatom 295 187 7 0 0 0 - #0-autopan-rate-s -;
#X obj 357 162 vradio 15 1 0 3 \$0-autopan-wave-s \$0-autopan-wave-r
empty 0 -8 0 10 -262144 -1 -1 0;
#X obj 358 229 tgl 15 0 \$0-autopan-bypass-s \$0-autopan-bypass-r BYPASS
20 7 0 10 -262144 -1 -1 0 1;
#X obj 158 229 hsl 128 15 0 1 0 0 \$0-autopan-amount-s \$0-autopan-amount-r
AMOUNT -42 8 0 10 -262144 -1 -1 8100 1;
#X floatatom 294 229 7 0 0 0 - #0-autopan-amount-s -;
#X text 376 161 SIN;
#X text 376 176 SAW;
#X text 375 192 SQUARE;
#X obj 669 344 unsig~ 44;
#X obj 10 310 loadbang;
#X msg 50 345 0;
#X msg 49 381 1;
#X msg 49 485 1;
#X msg 48 523 0;
#X obj 159 208 hsl 128 15 0 1 0 0 \$0-autopan-fine-s \$0-autopan-fine-r
FINE -32 8 0 10 -262144 -1 -1 0 1;
#X floatatom 295 208 7 0 0 0 - #0-autopan-fine-s -;
#X msg 50 450 0;
#X obj 727 267 +;
#X obj 793 242 t b;
#X obj 107 127 cnv 5 5 5 empty empty AUTO_PAN 0 0 0 14 -262144 -66577
0;
#X obj 179 115 cnv 5 5 5 empty empty \$0 0 12 0 14 -262144 -66577 0
;
#X text 248 102 IN R;
#X text 384 246 OUT R;
#X text 102 102 IN L / MONO;
#X text 103 246 OUT L / MONO;
#X text 398 103 MOD;
#X text 355 143 LFO;
#X obj 670 195 r \$0-autopan-rate-s;
#X obj 819 173 r \$0-autopan-fine-s;
#X obj 763 308 r \$0-autopan-wave-s;
#X obj 907 292 r \$0-autopan-amount-s;
#X obj 1118 403 r \$0-autopan-drywet-s;
#X obj 756 59 r \$0-autopan-bypass-s;
#X obj 1199 175 r \$0-autopan-modamount-s;
#X obj 96 362 s \$0-autopan-modamount-r;
#X obj 93 398 s \$0-autopan-drywet-r;
#X obj 92 435 s \$0-autopan-rate-r;
#X obj 92 502 s \$0-autopan-amount-r;
#X obj 91 540 s \$0-autopan-bypass-r;
#X obj 657 385 adc_autopan_processor;
#X msg 48 418 1;
#X obj 520 404 r \$0-autopan-drywet-s;
#X obj 95 467 s \$0-autopan-fine-r;
#X obj 863 391 adc_autopan_processor;
#X obj 756 82 adc_smooth;
#X obj 907 321 adc_smooth;
#X obj 520 429 adc_smooth;
#X obj 1118 432 adc_smooth;
#X obj 1199 201 adc_smooth;
#X obj 819 199 adc_smooth;
#X obj 670 225 adc_smooth;
#X obj 763 333 adc_smooth;
#X connect 0 0 3 0;
#X connect 0 1 62 0;
#X connect 1 0 2 0;
#X connect 1 0 0 1;
#X connect 1 0 7 1;
#X connect 5 0 0 0;
#X connect 5 0 9 0;
#X connect 6 0 7 0;
#X connect 6 0 16 0;
#X connect 7 0 4 0;
#X connect 7 1 66 0;
#X connect 8 0 9 1;
#X connect 9 0 3 0;
#X connect 10 0 3 0;
#X connect 11 0 12 0;
#X connect 12 0 14 1;
#X connect 13 0 31 0;
#X connect 14 0 13 1;
#X connect 15 0 16 1;
#X connect 16 0 4 0;
#X connect 17 0 4 0;
#X connect 31 0 62 1;
#X connect 31 0 66 1;
#X connect 32 0 33 0;
#X connect 32 0 34 0;
#X connect 32 0 63 0;
#X connect 32 0 35 0;
#X connect 32 0 36 0;
#X connect 32 0 39 0;
#X connect 33 0 57 0;
#X connect 34 0 58 0;
#X connect 35 0 60 0;
#X connect 36 0 61 0;
#X connect 39 0 65 0;
#X connect 40 0 14 0;
#X connect 40 0 13 0;
#X connect 41 0 40 0;
#X connect 50 0 73 0;
#X connect 51 0 72 0;
#X connect 52 0 74 0;
#X connect 53 0 68 0;
#X connect 54 0 70 0;
#X connect 55 0 67 0;
#X connect 56 0 71 0;
#X connect 62 0 10 0;
#X connect 62 1 17 0;
#X connect 63 0 59 0;
#X connect 64 0 69 0;
#X connect 66 0 10 0;
#X connect 66 1 17 0;
#X connect 67 0 1 0;
#X connect 68 0 62 3;
#X connect 68 0 66 3;
#X connect 69 0 8 0;
#X connect 69 0 10 1;
#X connect 70 0 17 1;
#X connect 70 0 15 0;
#X connect 71 0 12 1;
#X connect 72 0 41 0;
#X connect 72 0 40 1;
#X connect 73 0 40 0;
#X connect 73 0 13 0;
#X connect 74 0 62 2;
#X connect 74 0 66 2;
#X coords 0 -1 1 1 320 165 2 100 100;
