#N canvas 390 17 924 664 10;
#X floatatom 557 415 5 0 0 0 - - -;
#X obj 390 369 inlet;
#X obj 286 679 outlet~;
#X obj 598 377 inlet;
#X obj 286 645 spigot~;
#X obj 278 370 inlet;
#X obj 163 147 hsl 128 15 0 100 0 0 empty empty empty -2 -8 0 10 -262144
-1 -1 12700 1;
#X obj 112 145 tgl 15 0 empty empty empty 17 7 0 10 -262144 -1 -1 0
1;
#X floatatom 262 407 5 0 0 0 - - -;
#X floatatom 381 425 5 0 0 0 - - -;
#X floatatom 297 147 6 0 0 0 - - -;
#X text 101 129 Bypass;
#X obj 7 369 inlet~;
#X text -6 347 Input signal;
#X text 276 349 Bypass;
#X obj 163 119 hsl 128 15 0 1 0 0 empty empty empty -2 -8 0 10 -262144
-1 -1 12700 1;
#X floatatom 297 118 6 0 0 0 - - -;
#X text 111 116 Dry/Wet;
#X obj 132 364 inlet;
#X text 121 344 Dry/wet;
#X floatatom 162 433 5 0 0 0 - - -;
#X obj 277 599 *~;
#X obj 76 552 *~;
#X msg 160 82 1;
#X obj 160 62 loadbang;
#X obj 42 124 loadbang;
#X msg 43 145 0;
#X obj 49 643 spigot~;
#X obj 101 517 adc_!-;
#X obj 219 445 adc_not;
#X text 379 346 Frequency;
#X text 131 145 Freq;
#X obj 381 463 osc~;
#X text 593 357 Amount;
#X obj 367 514 *~;
#X obj 368 556 *~;
#X obj 163 165 hsl 128 15 0 1 0 0 empty empty empty -2 -8 0 10 -262144
-1 -1 12700 1;
#X floatatom 297 165 6 0 0 0 - - -;
#X text 119 162 Amount;
#X obj 43 198 loadbang;
#X msg 43 225 1;
#X connect 0 0 35 1;
#X connect 1 0 9 0;
#X connect 3 0 0 0;
#X connect 4 0 2 0;
#X connect 5 0 8 0;
#X connect 5 0 7 0;
#X connect 6 0 10 0;
#X connect 7 0 8 0;
#X connect 8 0 4 1;
#X connect 8 0 29 0;
#X connect 9 0 32 0;
#X connect 10 0 6 0;
#X connect 10 0 9 0;
#X connect 12 0 27 0;
#X connect 12 0 22 0;
#X connect 12 0 34 0;
#X connect 15 0 16 0;
#X connect 16 0 15 0;
#X connect 16 0 20 0;
#X connect 18 0 20 0;
#X connect 20 0 21 1;
#X connect 20 0 28 0;
#X connect 21 0 4 0;
#X connect 22 0 4 0;
#X connect 23 0 15 0;
#X connect 24 0 23 0;
#X connect 25 0 26 0;
#X connect 26 0 7 0;
#X connect 27 0 2 0;
#X connect 28 0 22 1;
#X connect 29 0 27 1;
#X connect 32 0 34 1;
#X connect 34 0 35 0;
#X connect 35 0 21 0;
#X connect 36 0 37 0;
#X connect 37 0 36 0;
#X connect 37 0 0 0;
#X connect 39 0 40 0;
#X connect 40 0 36 0;
#X coords 0 -1 1 1 250 90 1 100 100;
