#N canvas 358 1 966 651 10;
#X floatatom 557 415 5 0 0 0 - - -;
#X obj 390 369 inlet;
#X obj 286 679 outlet~;
#X obj 560 372 inlet;
#X obj 286 645 spigot~;
#X obj 278 370 inlet;
#X obj 163 147 hsl 128 15 0 200 0 0 empty empty empty -2 -8 0 10 -262144
-1 -1 0 1;
#X obj 163 165 hsl 128 15 0 0.99 0 0 empty empty empty -2 -8 0 10 -262144
-1 -1 0 1;
#X obj 112 145 tgl 15 0 empty empty empty 17 7 0 10 -262144 -1 -1 0
1;
#X floatatom 248 408 5 0 0 0 - - -;
#X floatatom 381 425 5 0 0 0 - - -;
#X obj 212 419 - 1;
#X floatatom 297 147 6 0 0 0 - - -;
#X floatatom 297 165 6 0 0 0 - - -;
#X text 101 129 Bypass;
#X obj 7 369 inlet~;
#X text -6 347 Input signal;
#X text 276 349 Bypass;
#X text 108 163 Feedback;
#X text 131 145 Time;
#X text 370 344 Delay time;
#X text 555 352 Feedback;
#X obj 423 539 *~;
#X obj 386 465 delread~ Line 1200;
#X obj 379 581 delwrite~ Line 1200;
#X obj 163 119 hsl 128 15 0 1 0 0 empty empty empty -2 -8 0 10 -262144
-1 -1 12700 1;
#X floatatom 297 118 6 0 0 0 - - -;
#X text 111 116 Dry/Wet;
#X obj 132 364 inlet;
#X text 121 344 Dry/wet;
#X floatatom 162 433 5 0 0 0 - - -;
#X obj 146 472 *~;
#X obj 94 517 -;
#X msg 79 495 1;
#X obj 76 552 *~;
#X obj 79 477 loadbang;
#X obj 128 438 t b;
#X msg 160 82 1;
#X obj 160 62 loadbang;
#X obj 42 124 loadbang;
#X msg 43 145 0;
#X obj 49 643 spigot~;
#X connect 0 0 22 1;
#X connect 1 0 10 0;
#X connect 1 0 6 0;
#X connect 3 0 0 0;
#X connect 3 0 7 0;
#X connect 4 0 2 0;
#X connect 5 0 9 0;
#X connect 5 0 8 0;
#X connect 6 0 12 0;
#X connect 7 0 13 0;
#X connect 8 0 9 0;
#X connect 9 0 11 0;
#X connect 9 0 4 1;
#X connect 10 0 23 0;
#X connect 11 0 41 1;
#X connect 12 0 6 0;
#X connect 12 0 10 0;
#X connect 13 0 7 0;
#X connect 13 0 0 0;
#X connect 15 0 41 0;
#X connect 15 0 34 0;
#X connect 15 0 31 0;
#X connect 22 0 24 0;
#X connect 23 0 22 0;
#X connect 23 0 4 0;
#X connect 25 0 26 0;
#X connect 26 0 25 0;
#X connect 26 0 30 0;
#X connect 28 0 30 0;
#X connect 30 0 31 1;
#X connect 30 0 36 0;
#X connect 30 0 32 1;
#X connect 31 0 24 0;
#X connect 32 0 34 1;
#X connect 33 0 32 0;
#X connect 34 0 4 0;
#X connect 35 0 33 0;
#X connect 36 0 32 0;
#X connect 37 0 25 0;
#X connect 38 0 37 0;
#X connect 39 0 40 0;
#X connect 40 0 8 0;
#X connect 41 0 2 0;
#X coords 0 -1 1 1 240 85 1 100 100;
