#N canvas 390 17 924 664 10;
#X floatatom 557 415 5 0 0 0 - - -;
#X obj 286 679 outlet~;
#X obj 569 372 inlet;
#X obj 286 645 spigot~;
#X obj 278 370 inlet;
#X obj 163 184 hsl 128 15 0 4 0 0 empty empty empty -2 -8 0 10 -262144
-1 -1 12700 1;
#X obj 112 145 tgl 15 0 empty empty empty 17 7 0 10 -262144 -1 -1 0
1;
#X floatatom 262 407 5 0 0 0 - - -;
#X floatatom 297 184 6 0 0 0 - - -;
#X text 101 129 Bypass;
#X obj 7 369 inlet~;
#X text -6 347 Input signal;
#X text 276 349 Bypass;
#X obj 163 119 hsl 128 15 0 1 0 0 empty empty empty -2 -8 0 10 -262144
-1 -1 12700 1;
#X floatatom 297 118 6 0 0 0 - - -;
#X text 111 116 Dry/Wet;
#X obj 132 364 inlet;
#X text 121 344 Dry/wet;
#X floatatom 162 433 5 0 0 0 - - -;
#X obj 277 599 *~;
#X obj 76 552 *~;
#X msg 160 82 1;
#X obj 160 62 loadbang;
#X obj 42 124 loadbang;
#X msg 43 145 0;
#X obj 49 643 spigot~;
#X obj 101 517 adc_!-;
#X obj 219 445 adc_not;
#X text 565 349 Amount;
#X text 117 183 Amount;
#X obj 163 165 hsl 128 15 20 10000 1 0 empty empty empty -2 -8 0 10
-262144 -1 -1 0 1;
#X floatatom 297 165 6 0 0 0 - - -;
#X text 131 163 Rate;
#X obj 163 203 hsl 128 15 0 0.99 0 0 empty empty empty -2 -8 0 10 -262144
-1 -1 12700 1;
#X floatatom 297 203 6 0 0 0 - - -;
#X text 106 202 Feedback;
#X obj 656 372 inlet;
#X floatatom 654 413 5 0 0 0 - - -;
#X obj 469 373 inlet;
#X text 472 346 Rate;
#N canvas 820 155 450 387 fm 0;
#X obj 35 44 inlet~;
#X obj 221 342 outlet~;
#X obj 223 44 inlet;
#X obj 276 44 inlet;
#X obj 343 44 inlet;
#X text 225 22 Rate;
#X text 272 22 Amount;
#X text 337 22 Feedback;
#X obj 223 93 osc~;
#X obj 223 123 +~ 1;
#X obj 223 156 *~ 0.5;
#X obj 222 201 *~;
#X obj 221 234 vd~ delLine;
#X obj 221 265 *~;
#X text 26 21 Input signal;
#X obj 44 296 delwrite~ delLine 1000;
#X connect 0 0 15 0;
#X connect 2 0 8 0;
#X connect 3 0 11 1;
#X connect 4 0 13 1;
#X connect 8 0 9 0;
#X connect 9 0 10 0;
#X connect 10 0 11 0;
#X connect 11 0 12 0;
#X connect 12 0 13 0;
#X connect 13 0 1 0;
#X restore 380 572 pd fm;
#X floatatom 473 422 5 0 0 0 - - -;
#X text 643 350 Feedback;
#X connect 0 0 40 2;
#X connect 2 0 0 0;
#X connect 3 0 1 0;
#X connect 4 0 7 0;
#X connect 4 0 6 0;
#X connect 5 0 8 0;
#X connect 6 0 7 0;
#X connect 7 0 3 1;
#X connect 7 0 27 0;
#X connect 8 0 5 0;
#X connect 8 0 0 0;
#X connect 10 0 25 0;
#X connect 10 0 20 0;
#X connect 10 0 40 0;
#X connect 13 0 14 0;
#X connect 14 0 13 0;
#X connect 14 0 18 0;
#X connect 16 0 18 0;
#X connect 18 0 19 1;
#X connect 18 0 26 0;
#X connect 19 0 3 0;
#X connect 20 0 3 0;
#X connect 21 0 13 0;
#X connect 22 0 21 0;
#X connect 23 0 24 0;
#X connect 24 0 6 0;
#X connect 25 0 1 0;
#X connect 26 0 20 1;
#X connect 27 0 25 1;
#X connect 30 0 31 0;
#X connect 31 0 30 0;
#X connect 31 0 41 0;
#X connect 33 0 34 0;
#X connect 34 0 33 0;
#X connect 34 0 37 0;
#X connect 36 0 37 0;
#X connect 37 0 40 3;
#X connect 38 0 41 0;
#X connect 40 0 19 0;
#X connect 41 0 40 1;
#X coords 0 -1 1 1 250 125 1 100 100;
