#N canvas 318 29 924 664 10;
#X floatatom 557 415 5 0 0 0 - - -;
#X obj 390 369 inlet;
#X obj 286 679 outlet~;
#X obj 598 377 inlet;
#X obj 286 645 spigot~;
#X obj 278 370 inlet;
#X obj 163 147 hsl 128 15 0.01 200 0 0 empty empty empty -2 -8 0 10
-262144 -1 -1 317 1;
#X obj 163 165 hsl 128 15 0 0.99 0 0 empty empty empty -2 -8 0 10 -262144
-1 -1 11545 1;
#X obj 112 145 tgl 15 0 empty empty empty 17 7 0 10 -262144 -1 -1 0
1;
#X floatatom 262 407 5 0 0 0 - - -;
#X floatatom 381 425 5 0 0 0 - - -;
#X floatatom 297 147 6 0 0 0 - - -;
#X floatatom 297 165 6 0 0 0 - - -;
#X text 101 129 Bypass;
#X obj 7 369 inlet~;
#X text -6 347 Input signal;
#X text 276 349 Bypass;
#X text 108 163 Feedback;
#X text 131 145 Time;
#X text 370 344 Delay time;
#X text 593 357 Feedback;
#X obj 423 539 *~;
#X obj 386 465 delread~ Line 1200;
#X obj 379 581 delwrite~ Line 1200;
#X obj 163 119 hsl 128 15 0 1 0 0 empty empty empty -2 -8 0 10 -262144
-1 -1 12700 1;
#X floatatom 297 118 6 0 0 0 - - -;
#X text 111 116 Dry/Wet;
#X obj 132 364 inlet;
#X text 121 344 Dry/wet;
#X floatatom 162 433 5 0 0 0 - - -;
#X obj 146 472 *~;
#X obj 76 552 *~;
#X msg 160 82 1;
#X obj 160 62 loadbang;
#X obj 42 124 loadbang;
#X msg 43 145 0;
#X obj 49 643 spigot~;
#X obj 342 102 vradio 14 1 1 6 empty empty empty 0 -8 0 10 -262144
-1 -1 0;
#X obj 471 195 sel 0 1 2 3 4 5;
#X floatatom 369 207 5 0 0 0 - - -;
#X msg 470 269 5 0.9;
#X obj 528 306 unpack f f;
#X floatatom 494 331 5 0 0 0 - - -;
#X floatatom 605 335 5 0 0 0 - - -;
#X msg 518 269 30 0.4;
#X text 360 100 Comb filter;
#X text 359 129 Short Echo;
#X text 359 157 Short Reverb;
#X text 360 114 Loudness Boost;
#X msg 569 269 50 0.7;
#X msg 624 270 100 0.85;
#X text 360 143 Large Echo;
#X text 360 170 Large Reverb;
#X msg 690 270 100 0.3;
#X msg 748 269 150 0.58;
#X obj 101 517 adc_!-;
#X obj 219 445 adc_not;
#X connect 0 0 21 1;
#X connect 1 0 10 0;
#X connect 3 0 0 0;
#X connect 4 0 2 0;
#X connect 5 0 9 0;
#X connect 5 0 8 0;
#X connect 6 0 11 0;
#X connect 7 0 12 0;
#X connect 8 0 9 0;
#X connect 9 0 4 1;
#X connect 9 0 56 0;
#X connect 10 0 22 0;
#X connect 11 0 6 0;
#X connect 11 0 10 0;
#X connect 12 0 7 0;
#X connect 12 0 0 0;
#X connect 14 0 36 0;
#X connect 14 0 31 0;
#X connect 14 0 30 0;
#X connect 21 0 23 0;
#X connect 22 0 21 0;
#X connect 22 0 4 0;
#X connect 24 0 25 0;
#X connect 25 0 24 0;
#X connect 25 0 29 0;
#X connect 27 0 29 0;
#X connect 29 0 30 1;
#X connect 29 0 55 0;
#X connect 30 0 23 0;
#X connect 31 0 4 0;
#X connect 32 0 24 0;
#X connect 33 0 32 0;
#X connect 34 0 35 0;
#X connect 35 0 8 0;
#X connect 36 0 2 0;
#X connect 37 0 39 0;
#X connect 37 0 38 0;
#X connect 38 0 40 0;
#X connect 38 1 44 0;
#X connect 38 2 49 0;
#X connect 38 3 50 0;
#X connect 38 4 53 0;
#X connect 38 5 54 0;
#X connect 40 0 41 0;
#X connect 41 0 42 0;
#X connect 41 0 10 0;
#X connect 41 1 43 0;
#X connect 41 1 0 0;
#X connect 42 0 6 0;
#X connect 43 0 7 0;
#X connect 44 0 41 0;
#X connect 49 0 41 0;
#X connect 50 0 41 0;
#X connect 53 0 41 0;
#X connect 54 0 41 0;
#X connect 55 0 31 1;
#X connect 56 0 36 1;
#X coords 0 -1 1 1 350 90 1 100 100;
