#N canvas 364 63 845 538 10;
#X obj 62 65 inlet~ IN;
#X obj 62 394 outlet~ OUT;
#X obj 63 352 *~;
#X obj 151 64 inlet DRIVE;
#X obj 366 268 inlet OUTPUT;
#X obj 301 297 adc_dbtolin;
#X obj 63 136 *~;
#X obj 151 93 adc_dbtolin;
#X obj 62 222 expr~ atan($v1 * $f2) / atan($f2);
#X obj 257 64 inlet CURVE;
#X connect 0 0 6 0;
#X connect 2 0 1 0;
#X connect 3 0 7 0;
#X connect 4 0 5 0;
#X connect 5 0 2 1;
#X connect 6 0 8 0;
#X connect 7 0 6 1;
#X connect 8 0 2 0;
#X connect 9 0 8 1;
