#N canvas 347 0 1034 664 10;
#X floatatom 254 304 5 0 0 0 - - -;
#X msg 133 290 1;
#X obj 133 270 loadbang;
#X obj 168 342 -;
#X floatatom 185 366 5 0 0 0 - - -;
#X obj 206 308 t b f;
#X obj 123 545 *~;
#X obj 183 577 +~;
#X obj 119 372 t b f;
#X text 36 414 dry path;
#X text 764 183 modulation signal;
#X obj 241 542 *~;
#X obj 664 519 hip~;
#X obj 764 234 osc~;
#X floatatom 712 213 5 0 0 0 - - -;
#X msg 589 289 800;
#X obj 602 248 loadbang;
#X text 514 287 Center freq;
#X text 665 290 df;
#X msg 631 288 100;
#X floatatom 560 333 5 0 0 0 - - -;
#X obj 608 332 +;
#X obj 679 329 -;
#X floatatom 708 329 5 0 0 0 - - -;
#X obj 592 404 +~;
#X floatatom 821 283 5 0 0 0 - - -;
#X obj 776 349 s~ mod;
#X obj 776 290 *~;
#X obj 628 376 r~ mod;
#X obj 687 410 +~;
#X obj 73 340 r~ in;
#X obj 457 333 r~ in;
#X obj 571 487 lop~;
#X obj 162 144 hsl 128 15 0 200 0 0 empty empty empty -2 -8 0 10 -262144
-1 -1 0 1;
#X obj 162 162 hsl 128 15 0 1 0 0 empty empty empty -2 -8 0 10 -262144
-1 -1 0 1;
#X obj 111 142 tgl 15 0 empty empty empty 17 7 0 10 -262144 -1 -1 0
1;
#X floatatom 296 144 6 0 0 0 - - -;
#X floatatom 296 162 6 0 0 0 - - -;
#X text 100 126 Bypass;
#X obj 162 116 hsl 128 15 0 1 0 0 empty empty empty -2 -8 0 10 -262144
-1 -1 12700 1;
#X floatatom 296 115 6 0 0 0 - - -;
#X text 110 113 Dry/Wet;
#X msg 159 79 1;
#X obj 159 59 loadbang;
#X obj 41 121 loadbang;
#X msg 42 142 0;
#X text 130 142 Rate;
#X text 124 161 Depth;
#X obj 346 267 inlet;
#X text 17 249 Input signal;
#X obj 380 131 s wahwah_drywet;
#X obj 367 158 s wahwah_rate;
#X obj 459 158 s wahwah_bypass;
#X obj 368 180 s wahwah_depth;
#X text 348 241 Bypass;
#X obj 34 271 inlet~;
#X obj 34 304 s~ in;
#X obj 279 249 inlet;
#X text 267 227 Dry/wet;
#X obj 204 273 r wahwah_drywet;
#X obj 390 267 r wahwah_bypass;
#X obj 353 324 - 1;
#X floatatom 390 297 5 0 0 0 - - -;
#X obj 361 648 outlet~;
#X obj 260 614 spigot~;
#X obj 404 614 spigot~;
#X text 681 167 Rate;
#X obj 708 188 inlet;
#X obj 617 188 r wahwah_rate;
#X obj 818 255 r wahwah_depth;
#X text 883 235 Depth;
#X obj 910 256 inlet;
#X text 104 181;
#X connect 0 0 5 0;
#X connect 1 0 3 0;
#X connect 2 0 1 0;
#X connect 3 0 4 0;
#X connect 3 0 6 1;
#X connect 3 0 8 0;
#X connect 5 0 3 0;
#X connect 5 1 3 1;
#X connect 6 0 7 0;
#X connect 7 0 64 0;
#X connect 8 0 6 0;
#X connect 8 1 6 1;
#X connect 11 0 7 1;
#X connect 12 0 11 0;
#X connect 13 0 27 0;
#X connect 14 0 13 0;
#X connect 15 0 21 0;
#X connect 15 0 22 0;
#X connect 16 0 15 0;
#X connect 16 0 19 0;
#X connect 16 0 21 0;
#X connect 16 0 22 0;
#X connect 19 0 21 1;
#X connect 19 0 22 1;
#X connect 21 0 20 0;
#X connect 21 0 24 1;
#X connect 22 0 23 0;
#X connect 22 0 29 1;
#X connect 25 0 27 1;
#X connect 27 0 26 0;
#X connect 28 0 24 0;
#X connect 28 0 29 0;
#X connect 30 0 6 0;
#X connect 31 0 32 0;
#X connect 31 0 65 0;
#X connect 32 0 12 0;
#X connect 33 0 36 0;
#X connect 33 0 51 0;
#X connect 34 0 37 0;
#X connect 34 0 53 0;
#X connect 35 0 52 0;
#X connect 36 0 33 0;
#X connect 37 0 34 0;
#X connect 39 0 40 0;
#X connect 39 0 50 0;
#X connect 40 0 39 0;
#X connect 42 0 39 0;
#X connect 43 0 42 0;
#X connect 44 0 45 0;
#X connect 45 0 35 0;
#X connect 48 0 62 0;
#X connect 55 0 56 0;
#X connect 57 0 0 0;
#X connect 59 0 0 0;
#X connect 60 0 62 0;
#X connect 61 0 64 1;
#X connect 62 0 61 0;
#X connect 62 0 65 1;
#X connect 64 0 63 0;
#X connect 65 0 63 0;
#X connect 67 0 14 0;
#X connect 68 0 14 0;
#X connect 69 0 25 0;
#X connect 71 0 25 0;
#X coords 0 -1 1 1 240 85 1 100 100;
