#N canvas 432 0 966 641 10;
#X floatatom 559 415 5 0 0 0 - - -;
#X obj 392 369 inlet;
#X obj 288 700 outlet~;
#X obj 562 372 inlet;
#X obj 281 655 spigot~;
#X obj 278 370 inlet;
#X obj 162 154 hsl 128 15 0 2000 0 0 empty empty empty -2 -8 0 10 -262144
-1 -1 100 1;
#X obj 162 172 hsl 128 15 0 1 0 0 empty empty empty -2 -8 0 10 -262144
-1 -1 12700 1;
#X obj 111 141 tgl 15 0 empty empty empty 17 7 0 10 -262144 -1 -1 0
1;
#X floatatom 248 408 5 0 0 0 - - -;
#X floatatom 383 425 5 0 0 0 - - -;
#X floatatom 296 154 6 0 0 0 - - -;
#X floatatom 296 172 6 0 0 0 - - -;
#X text 102 126 Bypass;
#X obj 7 369 inlet~;
#X text -6 347 Input signal;
#X text 276 349 Bypass;
#X text 107 170 Feedback;
#X obj 448 517 *~;
#X obj 163 119 hsl 128 15 0 1 0 0 empty empty empty -2 -8 0 10 -262144
-1 -1 11900 1;
#X floatatom 297 118 6 0 0 0 - - -;
#X text 111 116 Dry/Wet;
#X obj 132 364 inlet;
#X text 121 344 Dry/wet;
#X floatatom 162 433 5 0 0 0 - - -;
#X obj 146 472 *~;
#X obj 76 552 *~;
#X msg 160 82 1;
#X obj 160 62 loadbang;
#X obj 42 124 loadbang;
#X msg 43 145 0;
#X obj 44 653 spigot~;
#X obj 437 700 outlet~;
#X obj 162 195 hsl 128 15 0 2000 0 0 empty empty empty -2 -8 0 10 -262144
-1 -1 400 1;
#X obj 162 213 hsl 128 15 0 1 0 0 empty empty empty -2 -8 0 10 -262144
-1 -1 1200 1;
#X floatatom 296 195 6 0 0 0 - - -;
#X floatatom 296 213 6 0 0 0 - - -;
#X text 130 193 Time;
#X text 129 151 Time;
#X text 105 211 Feedback;
#X text 103 158 L;
#X text 104 197 R;
#X text 372 343 Delay time L;
#X text 548 348 Feedback L;
#X floatatom 834 416 5 0 0 0 - - -;
#X obj 667 370 inlet;
#X obj 837 373 inlet;
#X floatatom 658 426 5 0 0 0 - - -;
#X obj 723 518 *~;
#X text 647 344 Delay time R;
#X text 819 349 Feedback R;
#X obj 432 654 spigot~;
#X obj 392 592 delwrite~ LineL 2000;
#X obj 388 465 delread~ LineL 2000;
#X obj 662 466 delread~ LineR 2000;
#X obj 667 593 delwrite~ LineR 2000;
#X obj 224 445 not;
#X obj 102 487 !-;
#X floatatom 108 519 5 0 0 0 - - -;
#X connect 0 0 18 1;
#X connect 1 0 10 0;
#X connect 1 0 6 0;
#X connect 3 0 0 0;
#X connect 3 0 7 0;
#X connect 4 0 2 0;
#X connect 5 0 9 0;
#X connect 5 0 8 0;
#X connect 6 0 11 0;
#X connect 7 0 12 0;
#X connect 8 0 9 0;
#X connect 9 0 4 1;
#X connect 9 0 51 1;
#X connect 9 0 56 0;
#X connect 10 0 53 0;
#X connect 11 0 6 0;
#X connect 11 0 10 0;
#X connect 12 0 7 0;
#X connect 12 0 0 0;
#X connect 14 0 31 0;
#X connect 14 0 26 0;
#X connect 14 0 25 0;
#X connect 18 0 55 0;
#X connect 19 0 20 0;
#X connect 20 0 19 0;
#X connect 20 0 24 0;
#X connect 22 0 24 0;
#X connect 24 0 25 1;
#X connect 24 0 57 0;
#X connect 25 0 52 0;
#X connect 25 0 55 0;
#X connect 26 0 4 0;
#X connect 27 0 19 0;
#X connect 28 0 27 0;
#X connect 29 0 30 0;
#X connect 30 0 8 0;
#X connect 31 0 2 0;
#X connect 31 0 32 0;
#X connect 33 0 35 0;
#X connect 33 0 47 0;
#X connect 34 0 36 0;
#X connect 34 0 44 0;
#X connect 35 0 33 0;
#X connect 36 0 34 0;
#X connect 44 0 48 1;
#X connect 45 0 47 0;
#X connect 46 0 44 0;
#X connect 47 0 54 0;
#X connect 48 0 52 0;
#X connect 51 0 32 0;
#X connect 53 0 18 0;
#X connect 53 0 4 0;
#X connect 54 0 48 0;
#X connect 54 0 51 0;
#X connect 56 0 31 1;
#X connect 57 0 58 0;
#X connect 57 0 26 1;
#X coords 0 -1 1 1 240 140 1 100 100;
