#N canvas 594 84 783 453 12;
#X obj 324 84 inlet;
#X text 313 51 Delay time;
#X obj 173 81 inlet~;
#X obj 544 126 inlet;
#X text 532 93 Feedback;
#X obj 393 207 *~;
#X obj 240 357 outlet~;
#X text 153 52 Input signal;
#X obj 323 128 delread~ feedback 1000;
#X obj 418 310 delwrite~ feedback 1000;
#X obj 374 268 +~;
#X floatatom 389 108 5 0 0 0 - - -;
#X floatatom 554 160 5 0 0 0 - - -;
#X connect 0 0 8 0;
#X connect 0 0 11 0;
#X connect 2 0 10 0;
#X connect 2 0 6 0;
#X connect 3 0 5 1;
#X connect 3 0 12 0;
#X connect 5 0 10 1;
#X connect 8 0 5 0;
#X connect 8 0 6 0;
#X connect 10 0 9 0;
