#N canvas 309 18 958 665 10;
#X floatatom 693 397 5 0 0 0 - - -;
#X obj 518 351 inlet;
#X obj 353 681 outlet~;
#X obj 736 360 inlet;
#X obj 353 647 spigot~;
#X obj 345 372 inlet;
#X obj 175 163 hsl 128 15 -3 -0.01 0 0 empty empty empty -2 -8 0 10
-262144 -1 -1 800 1;
#X obj 175 181 hsl 128 15 0.01 10 0 0 empty empty empty -2 -8 0 10
-262144 -1 -1 1400 1;
#X obj 107 147 tgl 15 0 empty empty empty 17 7 0 10 -262144 -1 -1 0
1;
#X floatatom 329 409 5 0 0 0 - - -;
#X floatatom 517 392 5 0 0 0 - - -;
#X floatatom 309 163 6 0 0 0 - - -;
#X floatatom 309 181 6 0 0 0 - - -;
#X text 100 129 Bypass;
#X obj 0 339 inlet~;
#X text -13 317 Input signal;
#X text 343 351 Bypass;
#X obj 175 115 hsl 128 15 0 1 0 0 empty empty empty -2 -8 0 10 -262144
-1 -1 9800 1;
#X floatatom 309 114 6 0 0 0 - - -;
#X text 124 112 Dry/Wet;
#X obj 199 366 inlet;
#X text 188 346 Dry/wet;
#X floatatom 229 435 5 0 0 0 - - -;
#X obj 213 474 *~;
#X obj 154 555 *~;
#X msg 160 82 1;
#X obj 160 62 loadbang;
#X obj 42 124 loadbang;
#X msg 43 145 0;
#X obj 49 643 spigot~;
#X obj 168 519 !-;
#X obj 286 447 not;
#X obj 175 143 hsl 128 15 0 6 0 0 empty empty empty -2 -8 0 10 -262144
-1 -1 7900 1;
#X floatatom 309 142 6 0 0 0 - - -;
#X text 137 141 Drive;
#X text 114 162 Linearity;
#X text 107 180 Distortion;
#X obj 424 371 inlet;
#X text 418 345 Drive;
#X floatatom 418 402 5 0 0 0 - - -;
#X obj 405 440 adc_dbtorms;
#X obj 394 512 *~;
#X floatatom 419 464 5 0 0 0 - - -;
#X text 506 329 Linearity;
#X text 721 340 Distortion;
#X obj 636 422 t b;
#X floatatom 705 484 5 0 0 0 - - -;
#X obj 523 649 snapshot~;
#X obj 522 600 tgl 15 0 empty empty empty 17 7 0 10 -262144 -1 -1 1
1;
#X floatatom 567 676 7 0 0 0 - - -;
#X obj 522 624 metro 101;
#X obj 671 458 expr (1/$f2 + $f1/(1- exp($f1*$f2)));
#X obj 440 488 watch;
#X floatatom 443 514 5 0 0 0 - - -;
#X msg 491 472 201;
#X obj 661 632 expr~ if($f2 != 0 \, ($v1 - $f2) / (1 - exp($f3 * ($f2
- $v1))) + $f2 / (1 - exp($f3 * $f2)) \, $f3);
#X obj 424 560 expr~ ($v1 - $f2) / (1 - exp($f3 * ($f2 - $v1))) + $f2
/ (1 - exp($f3 * $f2));
#X connect 0 0 45 0;
#X connect 0 0 51 1;
#X connect 1 0 10 0;
#X connect 3 0 0 0;
#X connect 4 0 2 0;
#X connect 4 0 47 0;
#X connect 5 0 9 0;
#X connect 5 0 8 0;
#X connect 6 0 11 0;
#X connect 7 0 12 0;
#X connect 8 0 9 0;
#X connect 9 0 4 1;
#X connect 9 0 31 0;
#X connect 10 0 51 0;
#X connect 10 0 56 1;
#X connect 11 0 6 0;
#X connect 11 0 10 0;
#X connect 12 0 7 0;
#X connect 12 0 0 0;
#X connect 14 0 29 0;
#X connect 14 0 24 0;
#X connect 14 0 23 0;
#X connect 17 0 18 0;
#X connect 18 0 17 0;
#X connect 18 0 22 0;
#X connect 20 0 22 0;
#X connect 22 0 23 1;
#X connect 22 0 30 0;
#X connect 23 0 41 0;
#X connect 24 0 4 0;
#X connect 25 0 17 0;
#X connect 26 0 25 0;
#X connect 27 0 28 0;
#X connect 28 0 8 0;
#X connect 29 0 2 0;
#X connect 30 0 24 1;
#X connect 31 0 29 1;
#X connect 32 0 33 0;
#X connect 33 0 32 0;
#X connect 33 0 39 0;
#X connect 37 0 39 0;
#X connect 39 0 40 0;
#X connect 40 0 42 0;
#X connect 40 0 41 1;
#X connect 41 0 52 0;
#X connect 41 0 56 0;
#X connect 45 0 51 0;
#X connect 47 0 49 0;
#X connect 48 0 50 0;
#X connect 50 0 47 0;
#X connect 51 0 46 0;
#X connect 51 0 56 2;
#X connect 52 0 53 0;
#X connect 54 0 52 1;
#X connect 56 0 4 0;
#X coords 0 -1 1 1 255 100 1 100 100;
