#N canvas 0 0 1366 682 10;
#X floatatom 711 97 5 0 0 0 - - -;
#X obj 474 334 spigot~;
#X obj 756 113 adc_not;
#X floatatom 756 141 5 0 0 0 - - -;
#X obj 473 561 outlet~ L;
#X obj 1044 557 outlet~ R;
#X obj 475 179 inlet~ L;
#X obj 1043 176 inlet~ R;
#X obj 1044 335 spigot~;
#X obj 520 459 adc_!-;
#X obj 505 485 *~;
#X obj 657 503 *~;
#X obj 1142 218 *~;
#X obj 1118 462 adc_!-;
#X obj 1103 488 *~;
#X obj 1064 496 *~;
#X obj 159 164 hsl 128 15 0 1 0 0 \$0-waveshaper-drywet-s \$0-waveshaper-drywet-r
DRY/WET -48 8 0 10 -228856 -1 -1 12700 1;
#X floatatom 295 164 7 0 0 0 - #0-waveshaper-drywet-s -;
#X obj 159 141 hsl 128 15 0 1 0 0 \$0-waveshaper-modamount-s \$0-waveshaper-modamount-r
MOD_AMT -48 8 0 10 -261682 -1 -1 0 1;
#X floatatom 295 141 7 0 0 0 - #0-waveshaper-modamount-s -;
#X obj 159 187 hsl 128 15 -36 24 0 0 \$0-waveshaper-drive-s \$0-waveshaper-drive-r
DRIVE -38 8 0 10 -262144 -1 -1 7620 1;
#X floatatom 295 187 5 -36 24 0 - #0-waveshaper-drive-s -;
#X obj 357 162 vradio 15 1 0 3 \$0-waveshaper-preset-s \$0-waveshaper-preset-r
empty 0 -8 0 10 -262144 -1 -1 0;
#X obj 358 229 tgl 15 0 \$0-waveshaper-bypass-s \$0-waveshaper-bypass-r
BYPASS 20 7 0 10 -262144 -1 -1 0 1;
#X obj 158 229 hsl 128 15 -36 24 0 0 \$0-waveshaper-output-s \$0-waveshaper-output-r
OUTPUT -42 8 0 10 -262144 -1 -1 7620 1;
#X floatatom 294 229 5 0 0 0 - #0-waveshaper-output-s -;
#X obj 10 310 loadbang;
#X msg 28 347 0;
#X msg 27 383 1;
#X msg 26 525 0;
#X obj 159 208 hsl 128 15 0.1 100 0 0 \$0-waveshaper-curve-s \$0-waveshaper-curve-r
CURVE -40 8 0 10 -262144 -1 -1 114 1;
#X floatatom 295 208 7 0 0 0 - #0-waveshaper-curve-s -;
#X obj 107 127 cnv 5 5 5 empty empty WAVESHAPER 0 0 0 14 -262144 -66577
0;
#X obj 193 115 cnv 5 5 5 empty empty \$0 0 12 0 14 -262144 -66577 0
;
#X text 248 102 IN R;
#X text 384 246 OUT R;
#X text 102 102 IN L / MONO;
#X text 103 246 OUT L / MONO;
#X text 396 103 MOD;
#X text 355 142 PRESETS;
#X text 376 161 SOFT;
#X text 376 176 MEDIUM;
#X text 375 192 HARD;
#X obj 74 364 s \$0-waveshaper-modamount-r;
#X obj 71 400 s \$0-waveshaper-drywet-r;
#X msg 26 420 0;
#X msg 28 452 1;
#X obj 70 437 s \$0-waveshaper-drive-r;
#X obj 70 504 s \$0-waveshaper-output-r;
#X obj 69 542 s \$0-waveshaper-bypass-r;
#X obj 756 65 r \$0-waveshaper-bypass-s;
#X obj 1118 402 r \$0-waveshaper-drywet-s;
#X obj 520 412 r \$0-waveshaper-drywet-s;
#X obj 657 385 adc_waveshaper_processor;
#X obj 1133 177 inlet~ MOD;
#X obj 1210 171 r \$0-waveshaper-modamount-s;
#X obj 791 251 *~;
#X obj 750 282 +~;
#X obj 751 316 unsig~ 100;
#X obj 72 469 s \$0-waveshaper-curve-r;
#X obj 729 199 r \$0-waveshaper-curve-s;
#X obj 264 307 r \$0-waveshaper-preset-s;
#X obj 264 346 sel 0 1 2;
#X obj 264 418 s \$0-waveshaper-curve-r;
#X obj 606 315 r \$0-waveshaper-drive-s;
#X obj 854 312 r \$0-waveshaper-output-s;
#X msg 27 487 0;
#X obj 863 389 adc_waveshaper_processor;
#X msg 351 378 100;
#X msg 305 380 10;
#X msg 264 380 5;
#X text 328 229 dB;
#X text 328 187 dB;
#X obj 756 91 adc_smooth;
#X obj 1118 430 adc_smooth;
#X obj 520 436 adc_smooth;
#X obj 1210 195 adc_smooth;
#X obj 729 224 adc_smooth;
#X obj 606 340 adc_smooth;
#X obj 854 337 adc_smooth;
#X connect 1 0 4 0;
#X connect 1 1 53 0;
#X connect 2 0 3 0;
#X connect 2 0 1 1;
#X connect 2 0 8 1;
#X connect 6 0 1 0;
#X connect 6 0 10 0;
#X connect 7 0 8 0;
#X connect 7 0 14 0;
#X connect 8 0 5 0;
#X connect 8 1 67 0;
#X connect 9 0 10 1;
#X connect 10 0 4 0;
#X connect 11 0 4 0;
#X connect 12 0 56 1;
#X connect 13 0 14 1;
#X connect 14 0 5 0;
#X connect 15 0 5 0;
#X connect 26 0 27 0;
#X connect 26 0 28 0;
#X connect 26 0 45 0;
#X connect 26 0 66 0;
#X connect 26 0 29 0;
#X connect 26 0 46 0;
#X connect 27 0 43 0;
#X connect 28 0 44 0;
#X connect 29 0 49 0;
#X connect 45 0 47 0;
#X connect 46 0 59 0;
#X connect 50 0 0 0;
#X connect 50 0 73 0;
#X connect 51 0 74 0;
#X connect 52 0 75 0;
#X connect 53 0 11 0;
#X connect 54 0 12 0;
#X connect 55 0 76 0;
#X connect 56 0 57 1;
#X connect 57 0 58 0;
#X connect 58 0 53 2;
#X connect 58 0 67 2;
#X connect 60 0 77 0;
#X connect 61 0 62 0;
#X connect 62 0 70 0;
#X connect 62 1 69 0;
#X connect 62 2 68 0;
#X connect 64 0 78 0;
#X connect 65 0 79 0;
#X connect 66 0 48 0;
#X connect 67 0 15 0;
#X connect 68 0 63 0;
#X connect 69 0 63 0;
#X connect 70 0 63 0;
#X connect 73 0 2 0;
#X connect 74 0 13 0;
#X connect 74 0 15 1;
#X connect 75 0 9 0;
#X connect 75 0 11 1;
#X connect 76 0 12 1;
#X connect 77 0 57 0;
#X connect 77 0 56 0;
#X connect 78 0 53 1;
#X connect 78 0 67 1;
#X connect 79 0 53 3;
#X connect 79 0 67 3;
#X coords 0 -1 1 1 320 165 2 100 100;
