#N canvas 0 0 1366 682 10;
#X floatatom 711 97 5 0 0 0 - - -;
#X obj 474 334 spigot~;
#X obj 756 113 adc_not;
#X floatatom 756 141 5 0 0 0 - - -;
#X obj 473 561 outlet~ L;
#X obj 1044 557 outlet~ R;
#X obj 475 179 inlet~ L;
#X obj 1043 176 inlet~ R;
#X obj 1044 335 spigot~;
#X obj 520 425 r \$0-ringmod-drywet-s;
#X obj 744 71 r \$0-ringmod-bypass-s;
#X obj 520 459 adc_!-;
#X obj 505 485 *~;
#X obj 657 503 *~;
#X obj 1125 185 inlet~ FM;
#X obj 1134 226 *~;
#X obj 664 217 r \$0-ringmod-freq-s;
#X obj 670 309 +~;
#X obj 717 298 *~;
#X obj 1118 428 r \$0-ringmod-drywet-s;
#X obj 1118 462 adc_!-;
#X obj 1103 488 *~;
#X obj 1064 496 *~;
#X obj 863 389 adc_ringmod_processor;
#X obj 1192 185 r \$0-ringmod-fmamount-s;
#X obj 889 323 r \$0-ringmod-amount-s;
#X obj 761 323 r \$0-ringmod-wave-s;
#X obj 159 164 hsl 128 15 0 1 0 0 \$0-ringmod-drywet-s \$0-ringmod-drywet-r
DRY/WET -48 8 0 10 -228856 -1 -1 12700 1;
#X floatatom 295 164 7 0 0 0 - #0-ringmod-drywet-s -;
#X obj 159 141 hsl 128 15 0 1 0 0 \$0-ringmod-fmamount-s \$0-ringmod-fmamount-r
FM_AMT -48 8 0 10 -261682 -1 -1 0 1;
#X floatatom 295 141 7 0 0 0 - #0-ringmod-fmamount-s -;
#X obj 159 187 hsl 128 15 20 2000 0 0 \$0-ringmod-freq-s \$0-ringmod-freq-r
FREQ -32 8 0 10 -262144 -1 -1 513 1;
#X floatatom 295 187 7 0 0 0 - #0-ringmod-freq-s -;
#X obj 357 162 vradio 15 1 0 3 \$0-ringmod-wave-s \$0-ringmod-wave-r
empty 0 -8 0 10 -262144 -1 -1 0;
#X obj 358 229 tgl 15 0 \$0-ringmod-bypass-s \$0-ringmod-bypass-r BYPASS
20 7 0 10 -262144 -1 -1 0 1;
#X obj 158 229 hsl 128 15 0 1 0 0 \$0-ringmod-amount-s \$0-ringmod-amount-r
AMOUNT -42 8 0 10 -262144 -1 -1 12700 1;
#X floatatom 294 229 7 0 0 0 - #0-ringmod-amount-s -;
#X text 376 161 SIN;
#X text 376 176 SAW;
#X text 375 192 SQUARE;
#X floatatom 863 107 5 0 0 0 - - -;
#X floatatom 611 580 5 0 0 0 - - -;
#X obj 669 344 unsig~ 44;
#X obj 627 548 unsig~ 90;
#X obj 10 310 loadbang;
#X msg 28 347 0;
#X obj 74 364 s \$0-ringmod-fmamount-r;
#X msg 27 383 1;
#X obj 71 400 s \$0-ringmod-drywet-r;
#X obj 70 437 s \$0-ringmod-freq-r;
#X msg 27 487 1;
#X obj 70 504 s \$0-ringmod-amount-r;
#X obj 69 542 s \$0-ringmod-bypass-r;
#X msg 26 525 0;
#X text 354 139 CARRIER;
#X msg 26 420 100;
#X floatatom 1195 217 5 0 0 0 - - -;
#X floatatom 764 352 5 0 0 0 - - -;
#X obj 793 217 r \$0-ringmod-fine-s;
#X obj 159 208 hsl 128 15 -20 20 0 0 \$0-ringmod-fine-s \$0-ringmod-fine-r
FINE -32 8 0 10 -262144 -1 -1 6350 1;
#X floatatom 295 208 7 0 0 0 - #0-ringmod-fine-s -;
#X msg 28 452 0;
#X obj 72 469 s \$0-ringmod-fine-r;
#X obj 727 267 +;
#X obj 793 242 t b;
#X floatatom 807 300 5 0 0 0 - - -;
#X obj 107 127 cnv 5 5 5 empty empty RING_MOD 0 0 0 14 -262144 -66577
0;
#X obj 179 115 cnv 5 5 5 empty empty \$0 0 12 0 14 -262144 -66577 0
;
#X obj 657 385 adc_ringmod_processor;
#X text 248 102 IN R;
#X text 398 103 FM;
#X text 384 246 OUT R;
#X text 102 102 IN L / MONO;
#X text 103 246 OUT L / MONO;
#X connect 1 0 4 0;
#X connect 1 1 68 0;
#X connect 2 0 3 0;
#X connect 2 0 1 1;
#X connect 2 0 8 1;
#X connect 6 0 1 0;
#X connect 6 0 12 0;
#X connect 7 0 8 0;
#X connect 7 0 21 0;
#X connect 8 0 5 0;
#X connect 8 1 23 0;
#X connect 9 0 11 0;
#X connect 9 0 13 1;
#X connect 10 0 0 0;
#X connect 10 0 2 0;
#X connect 10 0 40 0;
#X connect 11 0 12 1;
#X connect 12 0 4 0;
#X connect 13 0 4 0;
#X connect 13 0 43 0;
#X connect 14 0 15 0;
#X connect 15 0 18 1;
#X connect 16 0 17 0;
#X connect 16 0 63 0;
#X connect 17 0 42 0;
#X connect 18 0 17 1;
#X connect 19 0 20 0;
#X connect 19 0 22 1;
#X connect 20 0 21 1;
#X connect 21 0 5 0;
#X connect 22 0 5 0;
#X connect 23 0 22 0;
#X connect 24 0 15 1;
#X connect 24 0 56 0;
#X connect 25 0 23 3;
#X connect 25 0 68 3;
#X connect 26 0 23 2;
#X connect 26 0 57 0;
#X connect 26 0 68 2;
#X connect 42 0 23 1;
#X connect 42 0 68 1;
#X connect 43 0 41 0;
#X connect 44 0 45 0;
#X connect 44 0 47 0;
#X connect 44 0 55 0;
#X connect 44 0 50 0;
#X connect 44 0 53 0;
#X connect 44 0 61 0;
#X connect 45 0 46 0;
#X connect 47 0 48 0;
#X connect 50 0 51 0;
#X connect 53 0 52 0;
#X connect 55 0 49 0;
#X connect 58 0 64 0;
#X connect 58 0 63 1;
#X connect 61 0 62 0;
#X connect 63 0 18 0;
#X connect 63 0 17 0;
#X connect 63 0 65 0;
#X connect 64 0 63 0;
#X connect 68 0 13 0;
#X coords 0 -1 1 1 320 165 2 100 100;
