#N canvas 512 2 887 664 10;
#X floatatom 557 415 5 0 0 0 - - -;
#X obj 383 334 inlet;
#X obj 285 678 outlet~;
#X obj 598 377 inlet;
#X obj 286 645 spigot~;
#X obj 278 370 inlet;
#X obj 185 140 hsl 128 15 0 30 0 0 empty empty empty -2 -8 0 10 -262144
-1 -1 300 1;
#X obj 184 181 hsl 128 15 0 10 0 0 empty empty empty -2 -8 0 10 -262144
-1 -1 12700 1;
#X obj 114 148 tgl 15 0 empty empty empty 17 7 0 10 -262144 -1 -1 0
1;
#X floatatom 262 407 5 0 0 0 - - -;
#X floatatom 373 361 5 0 0 0 - - -;
#X floatatom 319 140 6 0 0 0 - - -;
#X floatatom 318 181 6 0 0 0 - - -;
#X text 105 130 Bypass;
#X obj 7 369 inlet~;
#X text -6 347 Input signal;
#X text 276 349 Bypass;
#X text 593 357 Feedback;
#X obj 186 119 hsl 128 15 0 1 0 0 empty empty empty -2 -8 0 10 -262144
-1 -1 12700 1;
#X floatatom 320 118 6 0 0 0 - - -;
#X text 134 116 Dry/Wet;
#X obj 132 364 inlet;
#X text 121 344 Dry/wet;
#X floatatom 162 433 5 0 0 0 - - -;
#X obj 267 596 *~;
#X obj 76 552 *~;
#X msg 183 82 1;
#X obj 183 62 loadbang;
#X obj 46 107 loadbang;
#X msg 46 131 0;
#X obj 49 643 spigot~;
#X obj 101 517 adc_!-;
#X obj 219 445 adc_not;
#X text 381 309 Rate;
#X text 153 138 Rate;
#X obj 451 342 inlet;
#X floatatom 444 368 5 0 0 0 - - -;
#X text 452 314 Depth;
#X obj 185 160 hsl 128 15 0 30 0 0 empty empty empty -2 -8 0 10 -262144
-1 -1 200 1;
#X floatatom 319 160 6 0 0 0 - - -;
#X text 148 158 Depth;
#X text 138 179 Offset;
#N canvas 187 164 1136 463 Chorus 1;
#X obj 197 138 osc~;
#X obj 196 183 *~;
#X obj 233 161 line~;
#X obj 233 138 pack 0 50;
#X obj 13 116 inlet~;
#X obj 38 560 outlet~;
#X obj 193 23 inlet;
#X obj 253 23 inlet;
#X obj 344 24 inlet;
#X text 13 88 Signal in;
#X text 192 2 Rate;
#X text 251 1 Depth;
#X text 340 4 Offset;
#X obj 196 211 +~;
#X obj 33 176 delwrite~ Chorus 1000;
#X obj 195 240 vd~ Chorus;
#X obj 268 186 + 1;
#X obj 319 138 osc~;
#X obj 318 183 *~;
#X obj 355 161 line~;
#X obj 355 138 pack 0 50;
#X obj 318 211 +~;
#X obj 317 240 vd~ Chorus;
#X obj 435 138 osc~;
#X obj 434 183 *~;
#X obj 471 161 line~;
#X obj 471 138 pack 0 50;
#X obj 434 211 +~;
#X obj 433 240 vd~ Chorus;
#X obj 544 136 osc~;
#X obj 543 181 *~;
#X obj 580 159 line~;
#X obj 580 136 pack 0 50;
#X obj 543 209 +~;
#X obj 542 238 vd~ Chorus;
#X obj 653 136 osc~;
#X obj 652 181 *~;
#X obj 689 159 line~;
#X obj 689 136 pack 0 50;
#X obj 652 209 +~;
#X obj 651 238 vd~ Chorus;
#X obj 195 287 *~ 0.2;
#X obj 390 186 + 2;
#X obj 506 186 + 3;
#X obj 615 184 + 4;
#X obj 724 184 + 5;
#X obj 195 102 + 0.1;
#X obj 310 111 + 0.2;
#X obj 432 113 + 0.3;
#X obj 544 109 + 0.4;
#X obj 652 111 + 0.5;
#X obj 774 139 osc~;
#X obj 773 184 *~;
#X obj 810 162 line~;
#X obj 810 139 pack 0 50;
#X obj 773 212 +~;
#X obj 772 241 vd~ Chorus;
#X obj 896 139 osc~;
#X obj 895 184 *~;
#X obj 932 162 line~;
#X obj 932 139 pack 0 50;
#X obj 895 212 +~;
#X obj 894 241 vd~ Chorus;
#X obj 1012 139 osc~;
#X obj 1011 184 *~;
#X obj 1048 162 line~;
#X obj 1048 139 pack 0 50;
#X obj 1011 212 +~;
#X obj 1010 241 vd~ Chorus;
#X obj 1121 137 osc~;
#X obj 1120 182 *~;
#X obj 1157 160 line~;
#X obj 1157 137 pack 0 50;
#X obj 1120 210 +~;
#X obj 1119 239 vd~ Chorus;
#X obj 1230 137 osc~;
#X obj 1229 182 *~;
#X obj 1266 160 line~;
#X obj 1266 137 pack 0 50;
#X obj 1229 210 +~;
#X obj 1228 239 vd~ Chorus;
#X obj 772 288 *~ 0.2;
#X obj 772 103 + 0.6;
#X obj 888 111 + 0.7;
#X obj 1009 114 + 0.8;
#X obj 1121 110 + 0.9;
#X obj 1229 112 + 1;
#X obj 845 187 + 6;
#X obj 967 187 + 7;
#X obj 1083 187 + 8;
#X obj 1192 185 + 9;
#X obj 1301 185 + 10;
#X connect 0 0 1 0;
#X connect 1 0 13 0;
#X connect 2 0 1 1;
#X connect 3 0 2 0;
#X connect 4 0 14 0;
#X connect 6 0 46 0;
#X connect 6 0 47 0;
#X connect 6 0 48 0;
#X connect 6 0 49 0;
#X connect 6 0 50 0;
#X connect 6 0 82 0;
#X connect 6 0 83 0;
#X connect 6 0 84 0;
#X connect 6 0 85 0;
#X connect 6 0 86 0;
#X connect 7 0 3 0;
#X connect 7 0 20 0;
#X connect 7 0 26 0;
#X connect 7 0 32 0;
#X connect 7 0 38 0;
#X connect 7 0 54 0;
#X connect 7 0 60 0;
#X connect 7 0 66 0;
#X connect 7 0 72 0;
#X connect 7 0 78 0;
#X connect 8 0 16 0;
#X connect 8 0 42 0;
#X connect 8 0 43 0;
#X connect 8 0 44 0;
#X connect 8 0 45 0;
#X connect 8 0 87 0;
#X connect 8 0 88 0;
#X connect 8 0 89 0;
#X connect 8 0 90 0;
#X connect 8 0 91 0;
#X connect 13 0 15 0;
#X connect 15 0 41 0;
#X connect 16 0 13 1;
#X connect 17 0 18 0;
#X connect 18 0 21 0;
#X connect 19 0 18 1;
#X connect 20 0 19 0;
#X connect 21 0 22 0;
#X connect 22 0 41 0;
#X connect 23 0 24 0;
#X connect 24 0 27 0;
#X connect 25 0 24 1;
#X connect 26 0 25 0;
#X connect 27 0 28 0;
#X connect 28 0 41 0;
#X connect 29 0 30 0;
#X connect 30 0 33 0;
#X connect 31 0 30 1;
#X connect 32 0 31 0;
#X connect 33 0 34 0;
#X connect 34 0 41 0;
#X connect 35 0 36 0;
#X connect 36 0 39 0;
#X connect 37 0 36 1;
#X connect 38 0 37 0;
#X connect 39 0 40 0;
#X connect 40 0 41 0;
#X connect 41 0 5 0;
#X connect 42 0 21 1;
#X connect 43 0 27 1;
#X connect 44 0 33 1;
#X connect 45 0 39 1;
#X connect 46 0 0 0;
#X connect 47 0 17 0;
#X connect 48 0 23 0;
#X connect 49 0 29 0;
#X connect 50 0 35 0;
#X connect 51 0 52 0;
#X connect 52 0 55 0;
#X connect 53 0 52 1;
#X connect 54 0 53 0;
#X connect 55 0 56 0;
#X connect 56 0 81 0;
#X connect 57 0 58 0;
#X connect 58 0 61 0;
#X connect 59 0 58 1;
#X connect 60 0 59 0;
#X connect 61 0 62 0;
#X connect 62 0 81 0;
#X connect 63 0 64 0;
#X connect 64 0 67 0;
#X connect 65 0 64 1;
#X connect 66 0 65 0;
#X connect 67 0 68 0;
#X connect 68 0 81 0;
#X connect 69 0 70 0;
#X connect 70 0 73 0;
#X connect 71 0 70 1;
#X connect 72 0 71 0;
#X connect 73 0 74 0;
#X connect 74 0 81 0;
#X connect 75 0 76 0;
#X connect 76 0 79 0;
#X connect 77 0 76 1;
#X connect 78 0 77 0;
#X connect 79 0 80 0;
#X connect 80 0 81 0;
#X connect 81 0 5 0;
#X connect 82 0 51 0;
#X connect 83 0 57 0;
#X connect 84 0 63 0;
#X connect 85 0 69 0;
#X connect 86 0 75 0;
#X connect 87 0 55 1;
#X connect 88 0 61 1;
#X connect 89 0 67 1;
#X connect 90 0 73 1;
#X connect 91 0 79 1;
#X restore 373 562 pd Chorus;
#X connect 0 0 42 3;
#X connect 1 0 10 0;
#X connect 3 0 0 0;
#X connect 4 0 2 0;
#X connect 5 0 9 0;
#X connect 5 0 8 0;
#X connect 6 0 11 0;
#X connect 7 0 12 0;
#X connect 8 0 9 0;
#X connect 9 0 4 1;
#X connect 9 0 32 0;
#X connect 10 0 42 1;
#X connect 11 0 6 0;
#X connect 11 0 10 0;
#X connect 12 0 7 0;
#X connect 12 0 0 0;
#X connect 14 0 30 0;
#X connect 14 0 25 0;
#X connect 14 0 42 0;
#X connect 18 0 19 0;
#X connect 19 0 18 0;
#X connect 19 0 23 0;
#X connect 21 0 23 0;
#X connect 23 0 24 1;
#X connect 23 0 31 0;
#X connect 24 0 4 0;
#X connect 25 0 4 0;
#X connect 26 0 18 0;
#X connect 27 0 26 0;
#X connect 28 0 29 0;
#X connect 29 0 8 0;
#X connect 30 0 2 0;
#X connect 31 0 25 1;
#X connect 32 0 30 1;
#X connect 35 0 36 0;
#X connect 36 0 42 2;
#X connect 38 0 39 0;
#X connect 39 0 38 0;
#X connect 39 0 36 0;
#X connect 42 0 24 0;
#X coords 0 -1 1 1 280 105 1 100 100;
