#N canvas 569 63 845 538 10;
#X obj 62 65 inlet~ IN;
#X obj 59 394 outlet~ OUT;
#X obj 172 66 inlet FREQ;
#X obj 346 66 inlet WAVE;
#X obj 622 299 inlet AMOUNT;
#X obj 346 142 select 0 1 2;
#X obj 142 172 osc~;
#X obj 60 352 *~;
#X obj 101 323 *~;
#X obj 370 194 unpack f f f;
#X obj 140 255 spigot~;
#X obj 183 172 phasor~;
#X obj 240 173 square~;
#X obj 193 255 spigot~;
#X obj 249 255 spigot~;
#X obj 183 197 -~ 0.5;
#X obj 184 223 *~ 2;
#X msg 344 170 0 1 1;
#X msg 398 169 1 0 1;
#X msg 454 169 1 1 0;
#X connect 0 0 7 0;
#X connect 2 0 6 0;
#X connect 2 0 11 0;
#X connect 2 0 12 0;
#X connect 3 0 5 0;
#X connect 4 0 8 1;
#X connect 5 0 17 0;
#X connect 5 1 18 0;
#X connect 5 2 19 0;
#X connect 6 0 10 0;
#X connect 7 0 1 0;
#X connect 8 0 7 1;
#X connect 9 0 10 1;
#X connect 9 1 13 1;
#X connect 9 2 14 1;
#X connect 10 0 8 0;
#X connect 11 0 15 0;
#X connect 12 0 14 0;
#X connect 13 0 8 0;
#X connect 14 0 8 0;
#X connect 15 0 16 0;
#X connect 16 0 13 0;
#X connect 17 0 9 0;
#X connect 18 0 9 0;
#X connect 19 0 9 0;
