#N canvas 512 2 887 664 10;
#X floatatom 557 415 5 0 0 0 - - -;
#X obj 383 334 inlet;
#X obj 286 679 outlet~;
#X obj 598 377 inlet;
#X obj 286 645 spigot~;
#X obj 278 370 inlet;
#X obj 185 140 hsl 128 15 0 30 0 0 empty empty empty -2 -8 0 10 -262144
-1 -1 1100 1;
#X obj 184 181 hsl 128 15 0 0.99 0 0 empty empty empty -2 -8 0 10 -262144
-1 -1 10700 1;
#X obj 114 148 tgl 15 0 empty empty empty 17 7 0 10 -262144 -1 -1 0
1;
#X floatatom 262 407 5 0 0 0 - - -;
#X floatatom 373 361 5 0 0 0 - - -;
#X floatatom 319 140 6 0 0 0 - - -;
#X floatatom 318 181 6 0 0 0 - - -;
#X text 105 130 Bypass;
#X obj 7 369 inlet~;
#X text -6 347 Input signal;
#X text 276 349 Bypass;
#X text 129 179 Feedback;
#X text 593 357 Feedback;
#X obj 427 553 *~;
#X obj 186 119 hsl 128 15 0 1 0 0 empty empty empty -2 -8 0 10 -262144
-1 -1 12700 1;
#X floatatom 320 118 6 0 0 0 - - -;
#X text 134 116 Dry/Wet;
#X obj 132 364 inlet;
#X text 121 344 Dry/wet;
#X floatatom 162 433 5 0 0 0 - - -;
#X obj 256 577 *~;
#X obj 76 552 *~;
#X msg 183 82 1;
#X obj 183 62 loadbang;
#X obj 46 107 loadbang;
#X msg 46 131 0;
#X obj 49 643 spigot~;
#X obj 101 517 adc_!-;
#X obj 219 445 adc_not;
#X text 381 309 Rate;
#X text 153 138 Rate;
#X obj 451 342 inlet;
#X floatatom 444 368 5 0 0 0 - - -;
#X text 452 314 Depth;
#X obj 373 386 osc~;
#X obj 185 160 hsl 128 15 0 30 0 0 empty empty empty -2 -8 0 10 -262144
-1 -1 12700 1;
#X floatatom 319 160 6 0 0 0 - - -;
#X text 148 158 Depth;
#X obj 373 409 *~ 0.5;
#X obj 373 431 +~ 0.5;
#X obj 375 469 *~;
#X obj 376 506 vd~ Line 4000;
#X obj 383 585 delwrite~ Line 4000;
#X obj 439 428 line~;
#X obj 441 397 pack 0 50;
#X obj 543 446 pack 0 50;
#X obj 541 475 line~;
#X connect 0 0 51 0;
#X connect 1 0 10 0;
#X connect 3 0 0 0;
#X connect 4 0 2 0;
#X connect 5 0 9 0;
#X connect 5 0 8 0;
#X connect 6 0 11 0;
#X connect 7 0 12 0;
#X connect 8 0 9 0;
#X connect 9 0 4 1;
#X connect 9 0 34 0;
#X connect 10 0 40 0;
#X connect 11 0 6 0;
#X connect 11 0 10 0;
#X connect 12 0 7 0;
#X connect 12 0 0 0;
#X connect 14 0 32 0;
#X connect 14 0 27 0;
#X connect 14 0 48 0;
#X connect 19 0 48 0;
#X connect 20 0 21 0;
#X connect 21 0 20 0;
#X connect 21 0 25 0;
#X connect 23 0 25 0;
#X connect 25 0 26 1;
#X connect 25 0 33 0;
#X connect 26 0 4 0;
#X connect 27 0 4 0;
#X connect 28 0 20 0;
#X connect 29 0 28 0;
#X connect 30 0 31 0;
#X connect 31 0 8 0;
#X connect 32 0 2 0;
#X connect 33 0 27 1;
#X connect 34 0 32 1;
#X connect 37 0 38 0;
#X connect 38 0 50 0;
#X connect 40 0 44 0;
#X connect 41 0 42 0;
#X connect 42 0 41 0;
#X connect 42 0 38 0;
#X connect 44 0 45 0;
#X connect 45 0 46 0;
#X connect 46 0 47 0;
#X connect 47 0 19 0;
#X connect 47 0 26 0;
#X connect 49 0 46 1;
#X connect 50 0 49 0;
#X connect 51 0 52 0;
#X connect 52 0 19 1;
#X coords 0 -1 1 1 280 105 1 100 100;
