#N canvas 309 18 958 665 10;
#X obj 353 681 outlet~;
#X obj 353 647 spigot~;
#X obj 345 372 inlet;
#X obj 107 147 tgl 15 0 empty empty empty 17 7 0 10 -262144 -1 -1 0
1;
#X floatatom 329 409 5 0 0 0 - - -;
#X text 100 129 Bypass;
#X obj 0 339 inlet~;
#X text -13 317 Input signal;
#X text 343 351 Bypass;
#X obj 175 115 hsl 128 15 0 1 0 0 empty empty empty -2 -8 0 10 -262144
-1 -1 12700 1;
#X floatatom 309 114 6 0 0 0 - - -;
#X text 125 114 Dry/Wet;
#X obj 199 366 inlet;
#X text 188 346 Dry/wet;
#X floatatom 229 435 5 0 0 0 - - -;
#X obj 213 474 *~;
#X obj 154 555 *~;
#X msg 160 82 1;
#X obj 160 62 loadbang;
#X obj 42 124 loadbang;
#X msg 43 145 0;
#X obj 49 643 spigot~;
#X obj 175 143 hsl 128 15 0 18 0 0 empty empty empty -2 -8 0 10 -262144
-1 -1 11600 1;
#X floatatom 309 142 6 0 0 0 - - -;
#X text 137 141 Drive;
#X obj 424 371 inlet;
#X text 418 345 Drive;
#X floatatom 418 402 5 0 0 0 - - -;
#X obj 405 440 adc_dbtorms;
#X obj 394 512 *~;
#X floatatom 419 464 5 0 0 0 - - -;
#X obj 523 649 snapshot~;
#X obj 561 579 tgl 15 0 empty empty empty 17 7 0 10 -262144 -1 -1 0
1;
#X floatatom 567 676 7 0 0 0 - - -;
#X obj 522 624 metro 101;
#X obj 380 103 loadbang;
#X msg 381 130 0;
#X obj 168 519 adc_!-;
#X obj 286 447 adc_not;
#X obj 484 503 adc_sign~;
#X obj 468 543 expr~ $v2*(1-exp(-1*abs($v1)));
#X connect 1 0 0 0;
#X connect 1 0 31 0;
#X connect 2 0 4 0;
#X connect 2 0 3 0;
#X connect 3 0 4 0;
#X connect 4 0 1 1;
#X connect 4 0 38 0;
#X connect 6 0 21 0;
#X connect 6 0 16 0;
#X connect 6 0 15 0;
#X connect 9 0 10 0;
#X connect 10 0 9 0;
#X connect 10 0 14 0;
#X connect 12 0 14 0;
#X connect 14 0 15 1;
#X connect 14 0 37 0;
#X connect 15 0 29 0;
#X connect 16 0 1 0;
#X connect 17 0 9 0;
#X connect 18 0 17 0;
#X connect 19 0 20 0;
#X connect 20 0 3 0;
#X connect 21 0 0 0;
#X connect 22 0 23 0;
#X connect 23 0 22 0;
#X connect 23 0 27 0;
#X connect 25 0 27 0;
#X connect 27 0 28 0;
#X connect 28 0 30 0;
#X connect 28 0 29 1;
#X connect 29 0 40 0;
#X connect 29 0 39 0;
#X connect 31 0 33 0;
#X connect 32 0 34 0;
#X connect 34 0 31 0;
#X connect 35 0 36 0;
#X connect 36 0 22 0;
#X connect 37 0 16 1;
#X connect 38 0 21 1;
#X connect 39 0 40 1;
#X connect 40 0 1 0;
#X coords 0 -1 1 1 255 80 1 100 100;
