#N canvas 172 2 1227 664 10;
#X floatatom 557 403 5 0 0 0 - - -;
#X obj 383 334 inlet;
#X obj 285 678 outlet~;
#X obj 598 365 inlet;
#X obj 286 645 spigot~;
#X obj 278 370 inlet;
#X obj 184 138 hsl 128 15 0 30 0 0 empty empty empty -2 -8 0 10 -262144
-1 -1 0 1;
#X obj 183 179 hsl 128 15 0 1000 0 0 empty empty empty -2 -8 0 10 -262144
-1 -1 0 1;
#X obj 111 140 tgl 15 0 empty empty empty 17 7 0 10 -262144 -1 -1 0
1;
#X floatatom 262 407 5 0 0 0 - - -;
#X floatatom 373 361 5 0 0 0 - - -;
#X floatatom 318 138 6 0 0 0 - - -;
#X floatatom 317 179 6 0 0 0 - - -;
#X text 102 122 Bypass;
#X obj 11 370 inlet~;
#X text -6 347 Input signal;
#X text 276 349 Bypass;
#X obj 185 117 hsl 128 15 0 1 0 0 empty empty empty -2 -8 0 10 -262144
-1 -1 12700 1;
#X floatatom 319 116 6 0 0 0 - - -;
#X text 133 114 Dry/Wet;
#X obj 132 364 inlet;
#X text 121 344 Dry/wet;
#X floatatom 162 433 5 0 0 0 - - -;
#X obj 267 596 *~;
#X obj 76 552 *~;
#X msg 183 82 1;
#X obj 183 62 loadbang;
#X obj 46 107 loadbang;
#X msg 46 131 0;
#X obj 49 643 spigot~;
#X obj 101 517 adc_!-;
#X obj 219 445 adc_not;
#X text 381 309 Rate;
#X text 152 136 Rate;
#X obj 451 342 inlet;
#X floatatom 444 368 5 0 0 0 - - -;
#X obj 184 158 hsl 128 15 1000 4000 0 0 empty empty empty -2 -8 0 10
-262144 -1 -1 0 1;
#X floatatom 318 158 6 0 0 0 - - -;
#X text 114 177 Modulation;
#X text 593 345 Modulation;
#X obj 690 369 inlet;
#X floatatom 697 399 5 0 0 0 - - -;
#X text 684 344 Gain;
#X obj 184 201 hsl 128 15 0 1 0 0 empty empty empty -2 -8 0 10 -262144
-1 -1 0 1;
#X text 151 200 Gain;
#X text 127 157 Center f;
#X text 452 314 Center Frequency;
#X text 750 339 Feedback;
#X obj 755 361 inlet;
#X floatatom 766 389 5 0 0 0 - - -;
#X obj 185 224 hsl 128 15 0 1 0 0 empty empty empty -2 -8 0 10 -262144
-1 -1 0 1;
#X floatatom 319 224 6 0 0 0 - - -;
#X floatatom 319 200 6 0 0 0 - - -;
#X text 130 221 Feedback;
#N canvas 23 94 959 585 Phaser 0;
#X obj 22 28 inlet~;
#X text 22 6 Input signal;
#X obj 224 18 inlet;
#X text 224 -4 Rate;
#X obj 268 18 inlet;
#X obj 322 18 inlet;
#X obj 410 18 inlet;
#X obj 483 17 inlet;
#X obj 47 515 outlet~;
#X text 261 -5 Center f;
#X text 318 -5 Modulation;
#X text 416 -9 Gain;
#X text 474 -9 Feedback;
#X obj 224 69 osc~;
#X obj 224 105 *~;
#X obj 225 135 +~;
#X obj 567 17 inlet;
#X text 535 -9 Feedback Delay Time;
#X obj 99 172 delread~ Feedback;
#X obj 99 221 adc_allpass2~;
#X obj 187 220 adc_allpass2~;
#X obj 273 219 adc_allpass2~;
#X obj 360 219 adc_allpass2~;
#X obj 448 219 adc_allpass2~;
#X obj 537 218 adc_allpass2~;
#X obj 625 217 adc_allpass2~;
#X obj 714 216 adc_allpass2~;
#X obj 827 239 *~;
#X obj 827 275 delwrite~ Feedback 1000;
#X connect 0 0 19 0;
#X connect 2 0 13 0;
#X connect 4 0 14 1;
#X connect 5 0 15 1;
#X connect 6 0 19 2;
#X connect 6 0 20 2;
#X connect 6 0 21 2;
#X connect 6 0 22 2;
#X connect 6 0 23 2;
#X connect 6 0 24 2;
#X connect 6 0 25 2;
#X connect 6 0 26 2;
#X connect 7 0 27 1;
#X connect 13 0 14 0;
#X connect 14 0 15 0;
#X connect 15 0 19 1;
#X connect 15 0 20 1;
#X connect 15 0 21 1;
#X connect 15 0 22 1;
#X connect 15 0 23 1;
#X connect 15 0 24 1;
#X connect 15 0 25 1;
#X connect 15 0 26 1;
#X connect 16 0 18 0;
#X connect 18 0 19 0;
#X connect 19 0 20 0;
#X connect 19 0 8 0;
#X connect 20 0 21 0;
#X connect 20 0 8 0;
#X connect 21 0 22 0;
#X connect 21 0 8 0;
#X connect 22 0 23 0;
#X connect 22 0 8 0;
#X connect 23 0 24 0;
#X connect 23 0 8 0;
#X connect 24 0 25 0;
#X connect 24 0 8 0;
#X connect 25 0 26 0;
#X connect 25 0 8 0;
#X connect 26 0 27 0;
#X connect 26 0 8 0;
#X connect 27 0 28 0;
#X restore 407 573 pd Phaser;
#X obj 184 247 hsl 128 15 0 1000 0 0 empty empty empty -2 -8 0 10 -262144
-1 -1 0 1;
#X floatatom 318 247 6 0 0 0 - - -;
#X obj 860 357 inlet;
#X floatatom 874 386 5 0 0 0 - - -;
#X text 843 333 Feedback delay;
#X text 139 244 Delay;
#X connect 0 0 54 3;
#X connect 1 0 10 0;
#X connect 3 0 0 0;
#X connect 4 0 2 0;
#X connect 5 0 9 0;
#X connect 5 0 8 0;
#X connect 6 0 11 0;
#X connect 7 0 12 0;
#X connect 8 0 9 0;
#X connect 9 0 4 1;
#X connect 9 0 31 0;
#X connect 10 0 54 1;
#X connect 11 0 6 0;
#X connect 11 0 10 0;
#X connect 12 0 7 0;
#X connect 12 0 0 0;
#X connect 14 0 29 0;
#X connect 14 0 24 0;
#X connect 14 0 54 0;
#X connect 17 0 18 0;
#X connect 18 0 17 0;
#X connect 18 0 22 0;
#X connect 20 0 22 0;
#X connect 22 0 23 1;
#X connect 22 0 30 0;
#X connect 23 0 4 0;
#X connect 24 0 4 0;
#X connect 25 0 17 0;
#X connect 26 0 25 0;
#X connect 27 0 28 0;
#X connect 28 0 8 0;
#X connect 29 0 2 0;
#X connect 30 0 24 1;
#X connect 31 0 29 1;
#X connect 34 0 35 0;
#X connect 35 0 54 2;
#X connect 36 0 37 0;
#X connect 37 0 36 0;
#X connect 37 0 35 0;
#X connect 40 0 41 0;
#X connect 41 0 54 4;
#X connect 43 0 52 0;
#X connect 48 0 49 0;
#X connect 49 0 54 5;
#X connect 50 0 51 0;
#X connect 51 0 50 0;
#X connect 51 0 49 0;
#X connect 52 0 43 0;
#X connect 52 0 41 0;
#X connect 54 0 23 0;
#X connect 55 0 56 0;
#X connect 56 0 55 0;
#X connect 56 0 58 0;
#X connect 57 0 58 0;
#X connect 57 0 54 6;
#X connect 58 0 54 6;
#X coords 0 -1 1 1 280 170 1 100 100;
