#N canvas 22 57 1349 651 10;
#X floatatom 535 340 5 0 0 0 - - -;
#X obj 368 294 inlet;
#X obj 264 604 outlet~;
#X obj 538 297 inlet;
#X obj 264 570 spigot~;
#X obj 183 291 inlet;
#X obj 163 147 hsl 128 15 0 200 0 0 empty empty empty -2 -8 0 10 -262144
-1 -1 12200 1;
#X obj 163 165 hsl 128 15 0 1 0 0 empty empty empty -2 -8 0 10 -262144
-1 -1 5100 1;
#X obj 112 145 tgl 15 0 empty empty empty 17 7 0 10 -262144 -1 -1 1
1;
#X floatatom 218 320 5 0 0 0 - - -;
#X floatatom 359 350 5 0 0 0 - - -;
#X obj 190 344 - 1;
#X floatatom 297 147 6 0 0 0 - - -;
#X floatatom 297 165 6 0 0 0 - - -;
#X text 101 129 Bypass;
#X obj 20 294 inlet~;
#X text 7 272 Input signal;
#X obj 116 560 spigot~;
#X text 181 270 Bypass;
#X obj 40 330 *~ 0.5;
#X text 108 163 Feedback;
#X text 131 145 Time;
#X obj 368 161 s deltime;
#X obj 369 183 s delfeedback;
#X text 348 269 Delay time;
#X text 533 277 Feedback;
#X obj 401 464 *~;
#X obj 364 390 delread~ Line 1200;
#X obj 444 161 s delbypass;
#X obj 245 286 r delypass;
#X obj 301 314 r deltime;
#X obj 448 319 r delfeedback;
#X obj 357 506 delwrite~ Line 1200;
#X obj 163 119 hsl 128 15 0 1 0 0 empty empty empty -2 -8 0 10 -262144
-1 -1 12700 1;
#X floatatom 297 118 6 0 0 0 - - -;
#X text 111 116 Dry/Wet;
#X obj 381 134 s drywet;
#X obj 103 296 inlet;
#X text 99 269 Dry/wet;
#X floatatom 140 358 5 0 0 0 - - -;
#X text 105 184;
#X obj 96 337 r drywet;
#X obj 124 397 *~;
#X obj 54 445 -;
#X msg 39 423 1;
#X obj 12 452 *~;
#X obj 39 405 loadbang;
#X obj 106 363 t b;
#X msg 160 82 1;
#X obj 160 62 loadbang;
#X connect 0 0 26 1;
#X connect 1 0 10 0;
#X connect 1 0 6 0;
#X connect 3 0 0 0;
#X connect 3 0 7 0;
#X connect 4 0 2 0;
#X connect 5 0 9 0;
#X connect 5 0 8 0;
#X connect 6 0 12 0;
#X connect 6 0 22 0;
#X connect 7 0 13 0;
#X connect 7 0 23 0;
#X connect 8 0 28 0;
#X connect 8 0 9 0;
#X connect 9 0 11 0;
#X connect 9 0 4 1;
#X connect 10 0 27 0;
#X connect 11 0 17 1;
#X connect 12 0 6 0;
#X connect 13 0 7 0;
#X connect 15 0 19 0;
#X connect 17 0 2 0;
#X connect 19 0 42 0;
#X connect 19 0 45 0;
#X connect 26 0 32 0;
#X connect 27 0 26 0;
#X connect 27 0 4 0;
#X connect 29 0 9 0;
#X connect 30 0 10 0;
#X connect 31 0 0 0;
#X connect 33 0 34 0;
#X connect 33 0 36 0;
#X connect 34 0 33 0;
#X connect 37 0 39 0;
#X connect 39 0 42 1;
#X connect 39 0 47 0;
#X connect 39 0 43 1;
#X connect 41 0 39 0;
#X connect 42 0 32 0;
#X connect 43 0 45 1;
#X connect 44 0 43 0;
#X connect 45 0 17 0;
#X connect 46 0 44 0;
#X connect 47 0 43 0;
#X connect 48 0 33 0;
#X connect 49 0 48 0;
#X coords 0 -1 1 1 240 85 1 100 100;
