#N canvas 34 190 1096 461 12;
#X obj 78 425 dac~;
#X obj 52 157 adc_mix1~;
#X obj 159 156 adc_mix1~;
#X obj 84 10 osc~ 220;
#X obj 184 30 adc_chorus~;
#X connect 1 0 0 0;
#X connect 2 4 0 1;
#X connect 3 0 4 0;
#X connect 4 0 1 0;
#X connect 4 0 2 0;
