#N canvas 34 191 1096 460 12;
#X obj 78 425 dac~;
#X obj 52 157 adc_mix1~;
#X obj 159 156 adc_mix1~;
#X obj 62 13 osc~ 220;
#X obj 175 25 adc_flanger~;
#X connect 1 0 0 0;
#X connect 2 4 0 1;
#X connect 3 0 4 0;
#X connect 4 0 1 0;
#X connect 4 0 2 0;
