#N canvas 324 76 1096 460 12;
#X obj 111 433 dac~;
#X obj 95 163 adc_mix1~;
#X obj 73 35 pwm~ 0.3;
#X msg 59 -2 0.1;
#X obj 192 164 adc_mix1~;
#X obj 167 64 adc_slapback~;
#X connect 1 0 0 0;
#X connect 2 0 5 0;
#X connect 3 0 2 0;
#X connect 4 1 0 1;
#X connect 5 0 1 0;
#X connect 5 1 4 0;
