#N canvas 139 65 1008 560 12;
#X obj 78 425 dac~;
#X obj 52 157 adc_mix1~;
#X obj 159 156 adc_mix1~;
#X obj 86 3 osc~ 220;
#X obj 232 15 adc_fm~;
#X obj 9 8 adc_dsp~;
#X connect 1 0 0 0;
#X connect 2 4 0 1;
#X connect 3 0 4 0;
#X connect 4 0 2 0;
#X connect 4 0 1 0;
