#N canvas 46 109 1096 505 12;
#X obj 183 467 dac~;
#X obj 167 197 adc_mix1~;
#X msg 113 -13 0.1;
#X obj 264 198 adc_mix1~;
#X obj 302 37 adc_pingpong~;
#X obj 168 8 pwm~ 0.1;
#X obj 39 14 click~;
#X obj 39 -7 bng 15 250 50 0 empty empty empty 17 7 0 10 -262144 -1
-1;
#X connect 1 0 0 0;
#X connect 2 0 5 0;
#X connect 3 1 0 1;
#X connect 4 0 1 0;
#X connect 4 1 3 0;
#X connect 6 0 4 0;
#X connect 7 0 6 0;
