#N canvas 0 0 450 300 10;
#X obj 96 82 inlet~;
#X text 94 52 Input signal;
#X obj 239 78 inlet;
#X text 227 50 sampling time;
#X obj 168 112 loadbang;
#X obj 168 138 tgl 15 0 empty empty empty 17 7 0 10 -262144 -1 -1 1
1;
#X obj 168 215 snapshot~;
#X obj 172 175 metro;
#X msg 233 153 10;
#X obj 165 261 outlet;
#X connect 0 0 6 0;
#X connect 2 0 7 1;
#X connect 4 0 5 0;
#X connect 4 0 8 0;
#X connect 5 0 7 0;
#X connect 6 0 9 0;
#X connect 7 0 6 0;
#X connect 8 0 7 1;
