#N canvas 0 0 606 587 10;
#X obj 342 163 inlet;
#X text 343 141 Rate;
#X obj 290 248 metro;
#X obj 246 226 tgl 15 0 empty empty empty 17 7 0 10 -262144 -1 -1 1
1;
#X obj 290 298 random;
#X obj 370 255 loadbang;
#X obj 290 376 >;
#X obj 287 508 outlet;
#X text 294 528 0;
#X obj 350 508 outlet;
#X text 360 530 1;
#X floatatom 373 395 5 0 0 0 - - -;
#X obj 244 195 inlet;
#X text 237 175 ON / OFF;
#X obj 270 402 < 1;
#X obj 310 399 >= 1;
#X obj 350 473 tgl 15 0 empty empty empty 17 7 0 10 -262144 -1 -1 0
1;
#X obj 287 475 tgl 15 0 empty empty empty 17 7 0 10 -262144 -1 -1 1
1;
#X floatatom 247 495 5 0 0 0 - - -;
#X floatatom 397 491 5 0 0 0 - - -;
#X obj 179 107 tgl 15 0 empty empty empty 17 7 0 10 -262144 -1 -1 1
1;
#X floatatom 166 145 5 0 0 0 - - -;
#X obj 104 180 tgl 15 0 empty empty empty 17 7 0 10 -262144 -1 -1 1
1;
#X obj 181 181 tgl 15 0 empty empty empty 17 7 0 10 -262144 -1 -1 0
1;
#X obj 322 212 t b f;
#X text 167 130 Rate;
#X text 160 120 ON/OFF;
#X obj 28 109 loadbang;
#X obj 202 45 loadbang;
#X msg 202 65 1000;
#X obj 107 145 hsl 50 15 0 100 0 0 empty empty empty -2 -8 0 10 -262144
-1 -1 1200 1;
#X text 106 128 Chance;
#X floatatom 105 161 5 0 0 0 - - -;
#X obj 39 168 s chance;
#X obj 462 167 inlet;
#X text 459 150 Chance;
#X obj 448 256 t b f;
#X obj 468 223 r chance;
#X floatatom 472 190 5 0 0 0 - - -;
#X floatatom 501 247 5 0 0 0 - - -;
#X msg 355 279 100;
#X floatatom 306 327 5 0 0 0 - - -;
#X floatatom 295 171 5 0 0 0 - - -;
#X connect 0 0 24 0;
#X connect 0 0 42 0;
#X connect 2 0 4 0;
#X connect 3 0 2 0;
#X connect 4 0 6 0;
#X connect 4 0 41 0;
#X connect 5 0 40 0;
#X connect 6 0 11 0;
#X connect 6 0 14 0;
#X connect 6 0 15 0;
#X connect 12 0 3 0;
#X connect 12 0 20 0;
#X connect 14 0 17 0;
#X connect 15 0 16 0;
#X connect 16 0 9 0;
#X connect 16 0 19 0;
#X connect 16 0 23 0;
#X connect 17 0 7 0;
#X connect 17 0 18 0;
#X connect 17 0 22 0;
#X connect 20 0 3 0;
#X connect 21 0 2 1;
#X connect 24 0 2 0;
#X connect 24 1 2 1;
#X connect 27 0 20 0;
#X connect 28 0 29 0;
#X connect 29 0 21 0;
#X connect 30 0 32 0;
#X connect 30 0 33 0;
#X connect 32 0 30 0;
#X connect 34 0 36 0;
#X connect 34 0 30 0;
#X connect 34 0 38 0;
#X connect 36 0 6 0;
#X connect 36 1 6 1;
#X connect 37 0 36 0;
#X connect 37 0 39 0;
#X connect 40 0 4 1;
#X connect 42 0 21 0;
#X coords 0 -1 1 1 100 100 1 100 100;
