#N canvas 650 174 450 300 10;
#X obj 166 50 inlet;
#X obj 130 168 outlet;
#X obj 52 64 loadbang;
#X obj 117 126 -;
#X msg 52 89 1;
#X obj 121 90 t b;
#X text 44 6 Custom operator: y = 1 - x;
#X text 176 30 x;
#X text 140 185 y;
#X connect 0 0 3 1;
#X connect 0 0 5 0;
#X connect 2 0 4 0;
#X connect 3 0 1 0;
#X connect 4 0 3 0;
#X connect 5 0 3 0;
