#N canvas 419 155 450 300 10;
#X obj 131 35 inlet;
#X obj 135 144 outlet;
#X obj 154 99 % 2;
#X floatatom 187 130 5 0 0 0 - - -;
#X obj 136 66 + 1;
#X text 116 7 Logical NOT;
#X connect 0 0 4 0;
#X connect 2 0 3 0;
#X connect 2 0 1 0;
#X connect 4 0 2 0;
