#N canvas 46 91 450 300 10;
#X obj 146 61 inlet;
#X obj 274 242 outlet;
#X obj 194 62 inlet;
#X obj 343 54 inlet;
#X obj 292 53 inlet;
#X obj 176 118 metro;
#X obj 250 159 random;
#X obj 257 123 -;
#X text 143 36 ON/OFF;
#X text 197 36 rate;
#X text 348 27 max;
#X text 297 27 min;
#X obj 232 87 t b;
#X obj 274 198 +;
#X floatatom 334 240 5 0 0 0 - - -;
#X floatatom 97 103 5 0 0 0 - - -;
#X floatatom 139 121 5 0 0 0 - - -;
#X floatatom 322 111 5 0 0 0 - - -;
#X floatatom 368 80 5 0 0 0 - - -;
#X floatatom 222 198 5 0 0 0 - - -;
#X obj 182 165 bng 15 250 50 0 empty empty empty 17 7 0 10 -262144
-1 -1;
#X connect 0 0 5 0;
#X connect 0 0 15 0;
#X connect 2 0 5 1;
#X connect 2 0 16 0;
#X connect 3 0 7 0;
#X connect 3 0 18 0;
#X connect 4 0 12 0;
#X connect 4 0 7 1;
#X connect 4 0 13 1;
#X connect 4 0 17 0;
#X connect 5 0 6 0;
#X connect 5 0 20 0;
#X connect 6 0 13 0;
#X connect 6 0 19 0;
#X connect 7 0 6 1;
#X connect 12 0 7 0;
#X connect 12 0 13 0;
#X connect 13 0 1 0;
#X connect 13 0 14 0;
