#N canvas 0 0 503 391 12;
#X obj 187 56 inlet;
#X obj 267 291 outlet;
#X obj 186 112 exp;
#X obj 310 105 *;
#X msg 348 81 -1;
#X obj 347 52 loadbang;
#X obj 282 134 exp;
#X obj 268 249 /;
#X obj 212 196 -;
#X obj 324 194 +;
#X connect 0 0 2 0;
#X connect 0 0 3 0;
#X connect 2 0 8 0;
#X connect 2 0 9 0;
#X connect 3 0 6 0;
#X connect 4 0 3 1;
#X connect 5 0 4 0;
#X connect 6 0 8 1;
#X connect 6 0 9 1;
#X connect 7 0 1 0;
#X connect 8 0 7 0;
#X connect 9 0 7 1;
